<mxfile host="www.draw.io" modified="2020-01-17T15:05:53.015Z" agent="Mozilla/5.0 (Windows NT 10.0; Win64; x64; rv:69.0) Gecko/20100101 Firefox/69.0" etag="cacE2s9p2tK3MfDCIYXM" version="12.5.5" type="github">
  <diagram name="Page-1" id="dd472eb7-4b8b-5cd9-a60b-b15522922e76">
    <mxGraphModel dx="1463" dy="770" grid="1" gridSize="10" guides="1" tooltips="1" connect="1" arrows="1" fold="1" page="1" pageScale="1" pageWidth="1100" pageHeight="850" background="#ffffff" math="0" shadow="0">
      <root>
        <mxCell id="0"/>
        <mxCell id="1" parent="0"/>
        <mxCell id="45236fa5f4b8e91a-5" value="Family doctors" style="ellipse;whiteSpace=wrap;html=1;rounded=0;shadow=0;dashed=0;comic=0;fontFamily=Verdana;fontSize=22;fontColor=#0069D1;fillColor=#f5f5f5;strokeColor=#666666;" parent="1" vertex="1">
          <mxGeometry x="275" y="120" width="160" height="160" as="geometry"/>
        </mxCell>
        <mxCell id="374e34682ed331ee-1" value="&lt;div&gt;Health Card Application&lt;/div&gt;&lt;div&gt;Cassandra&lt;/div&gt;" style="ellipse;whiteSpace=wrap;html=1;rounded=0;shadow=0;dashed=0;comic=0;fontFamily=Verdana;fontSize=22;fontColor=#0069D1;fillColor=#f5f5f5;strokeColor=#666666;" parent="1" vertex="1">
          <mxGeometry x="398.04" y="277" width="259" height="180" as="geometry"/>
        </mxCell>
        <mxCell id="45236fa5f4b8e91a-1" value="Patients" style="ellipse;whiteSpace=wrap;html=1;rounded=0;shadow=0;dashed=0;comic=0;fontFamily=Verdana;fontSize=22;fontColor=#0069D1;fillColor=#f5f5f5;strokeColor=#666666;" parent="1" vertex="1">
          <mxGeometry x="440" y="40" width="170" height="160" as="geometry"/>
        </mxCell>
        <mxCell id="45236fa5f4b8e91a-2" value="&lt;div&gt;Ambulance&lt;/div&gt;&lt;div&gt;system&lt;br&gt;&lt;/div&gt;" style="ellipse;whiteSpace=wrap;html=1;rounded=0;shadow=0;dashed=0;comic=0;fontFamily=Verdana;fontSize=22;fontColor=#0069D1;fillColor=#f5f5f5;strokeColor=#666666;" parent="1" vertex="1">
          <mxGeometry x="450" y="560" width="160" height="160" as="geometry"/>
        </mxCell>
        <mxCell id="45236fa5f4b8e91a-3" value="Financial" style="ellipse;whiteSpace=wrap;html=1;rounded=0;shadow=0;dashed=0;comic=0;fontFamily=Verdana;fontSize=22;fontColor=#0069D1;fillColor=#f5f5f5;strokeColor=#666666;" parent="1" vertex="1">
          <mxGeometry x="710" y="300" width="160" height="160" as="geometry"/>
        </mxCell>
        <mxCell id="45236fa5f4b8e91a-4" value="Hospitals" style="ellipse;whiteSpace=wrap;html=1;rounded=0;shadow=0;dashed=0;comic=0;fontFamily=Verdana;fontSize=22;fontColor=#0069D1;fillColor=#f5f5f5;strokeColor=#666666;" parent="1" vertex="1">
          <mxGeometry x="190" y="300" width="160" height="160" as="geometry"/>
        </mxCell>
        <mxCell id="45236fa5f4b8e91a-6" value="&lt;div&gt;Regional Health &lt;br&gt;&lt;/div&gt;&lt;div&gt;House&lt;/div&gt;" style="ellipse;whiteSpace=wrap;html=1;rounded=0;shadow=0;dashed=0;comic=0;fontFamily=Verdana;fontSize=22;fontColor=#0069D1;fillColor=#f5f5f5;strokeColor=#666666;" parent="1" vertex="1">
          <mxGeometry x="620" y="130" width="160" height="160" as="geometry"/>
        </mxCell>
        <mxCell id="45236fa5f4b8e91a-7" value="&lt;div&gt;National Health &lt;br&gt;&lt;/div&gt;&lt;div&gt;House&lt;/div&gt;" style="ellipse;whiteSpace=wrap;html=1;rounded=0;shadow=0;dashed=0;comic=0;fontFamily=Verdana;fontSize=22;fontColor=#0069D1;fillColor=#f5f5f5;strokeColor=#666666;" parent="1" vertex="1">
          <mxGeometry x="620" y="470" width="160" height="160" as="geometry"/>
        </mxCell>
        <mxCell id="45236fa5f4b8e91a-8" value="&lt;div&gt;Private &lt;br&gt;&lt;/div&gt;&lt;div&gt;Health System&lt;/div&gt;" style="ellipse;whiteSpace=wrap;html=1;rounded=0;shadow=0;dashed=0;comic=0;fontFamily=Verdana;fontSize=22;fontColor=#0069D1;fillColor=#f5f5f5;strokeColor=#666666;" parent="1" vertex="1">
          <mxGeometry x="280" y="470" width="160" height="160" as="geometry"/>
        </mxCell>
        <mxCell id="uhcvnhkE3gYi9Mrpb9Jq-1" value="" style="shape=image;verticalLabelPosition=bottom;labelBackgroundColor=#ffffff;verticalAlign=top;aspect=fixed;imageAspect=0;image=data:image/svg+xml,PHN2ZyB4bWxuczpjYz0iaHR0cDovL2NyZWF0aXZlY29tbW9ucy5vcmcvbnMjIiB4bWxuczpkYz0iaHR0cDovL3B1cmwub3JnL2RjL2VsZW1lbnRzLzEuMS8iIHhtbG5zOmlua3NjYXBlPSJodHRwOi8vd3d3Lmlua3NjYXBlLm9yZy9uYW1lc3BhY2VzL2lua3NjYXBlIiB4bWxuczpyZGY9Imh0dHA6Ly93d3cudzMub3JnLzE5OTkvMDIvMjItcmRmLXN5bnRheC1ucyMiIHhtbG5zOnNvZGlwb2RpPSJodHRwOi8vc29kaXBvZGkuc291cmNlZm9yZ2UubmV0L0RURC9zb2RpcG9kaS0wLmR0ZCIgeG1sbnM6c3ZnPSJodHRwOi8vd3d3LnczLm9yZy8yMDAwL3N2ZyIgeG1sbnM9Imh0dHA6Ly93d3cudzMub3JnLzIwMDAvc3ZnIiB4bWxuczp4bGluaz0iaHR0cDovL3d3dy53My5vcmcvMTk5OS94bGluayIgdmVyc2lvbj0iMS4xIiBpZD0ic3ZnMTAwNjMxIiBpbmtzY2FwZTp2ZXJzaW9uPSIwLjkyLjMgKDI0MDU1NDYsIDIwMTgtMDMtMTEpIiBzb2RpcG9kaTpkb2NuYW1lPSJnZW5lcmljX2RhdGFiYXNlX2dyZWVuLnN2ZyIgeD0iMHB4IiB5PSIwcHgiIHZpZXdCb3g9IjAgMCAzNi44IDQ3LjY5IiBzdHlsZT0iZW5hYmxlLWJhY2tncm91bmQ6bmV3IDAgMCAzNi44IDQ3LjY5OyIgeG1sOnNwYWNlPSJwcmVzZXJ2ZSI+JiN4YTs8c29kaXBvZGk6bmFtZWR2aWV3IGJvcmRlcmNvbG9yPSIjNjY2NjY2IiBib3JkZXJvcGFjaXR5PSIxIiBmaXQtbWFyZ2luLWJvdHRvbT0iMCIgZml0LW1hcmdpbi1sZWZ0PSIwIiBmaXQtbWFyZ2luLXJpZ2h0PSIwIiBmaXQtbWFyZ2luLXRvcD0iMCIgZ3JpZHRvbGVyYW5jZT0iMTAiIGd1aWRldG9sZXJhbmNlPSIxMCIgaWQ9Im5hbWVkdmlldzEwMDYzMyIgaW5rc2NhcGU6Y3VycmVudC1sYXllcj0ic3ZnMTAwNjMxIiBpbmtzY2FwZTpjeD0iMjQuNTM3NjMyIiBpbmtzY2FwZTpjeT0iMzEuNzkxNjI0IiBpbmtzY2FwZTpwYWdlb3BhY2l0eT0iMCIgaW5rc2NhcGU6cGFnZXNoYWRvdz0iMiIgaW5rc2NhcGU6d2luZG93LWhlaWdodD0iMTAxNyIgaW5rc2NhcGU6d2luZG93LW1heGltaXplZD0iMSIgaW5rc2NhcGU6d2luZG93LXdpZHRoPSIxOTIwIiBpbmtzY2FwZTp3aW5kb3cteD0iLTgiIGlua3NjYXBlOndpbmRvdy15PSItOCIgaW5rc2NhcGU6em9vbT0iMTMuMjE4NDgxIiBvYmplY3R0b2xlcmFuY2U9IjEwIiBwYWdlY29sb3I9IiNmZmZmZmYiIHNob3dncmlkPSJmYWxzZSI+JiN4YTsJPC9zb2RpcG9kaTpuYW1lZHZpZXc+JiN4YTs8ZyBpZD0iZzEwMDYyOSIgdHJhbnNmb3JtPSJ0cmFuc2xhdGUoLTAuNzUsLTAuNzQ2NjI5MTcpIj4mI3hhOwk8dGl0bGUgaWQ9InRpdGxlMTAwNjAyIj5QYWdlLTE8L3RpdGxlPiYjeGE7CTxnIGlkPSJncm91cDM0OTktMSIgdHJhbnNmb3JtPSJ0cmFuc2xhdGUoMS41LC0xLjUpIj4mI3hhOwkJPHRpdGxlIGlkPSJ0aXRsZTEwMDYwNCI+R2VuZXJpYyBEYXRhYmFzZSAoR3JlZW4pPC90aXRsZT4mI3hhOwkJPGcgaWQ9InNoYXBlMzUwMC0yIj4mI3hhOwkJCTx0aXRsZSBpZD0idGl0bGUxMDA2MDYiPnBhdGgzMTE2PC90aXRsZT4mI3hhOwkJCTxwYXRoIGlkPSJwYXRoMTAwNjA4IiBpbmtzY2FwZTpjb25uZWN0b3ItY3VydmF0dXJlPSIwIiBzdHlsZT0iZmlsbDojRkZGRkZGOyIgZD0iTTMxLjgsOS4wMUwyMS40NSw5LjFMMCw5LjI4djMzLjM2ICAgICBjMCwzLjQyLDcuNSw2LjM3LDE3LjI2LDYuNTVoMC4zN2MxLjMyLDAsMi42LTAuMDcsMy44Mi0wLjE5YzMuNTctMC4yMiw3LjA4LTEuMDcsMTAuMzUtMi41M2MyLjE5LTEuMDksMy40Ni0yLjQyLDMuNDYtMy44M1Y4Ljk4ICAgICBMMzEuOCw5LjAxeiIvPiYjeGE7CQk8L2c+JiN4YTsJCTxnIGlkPSJzaGFwZTM1MDEtNCIgdHJhbnNmb3JtPSJ0cmFuc2xhdGUoMjEuMTU2OSwtMC4xODc1NjEpIj4mI3hhOwkJCTx0aXRsZSBpZD0idGl0bGUxMDA2MTEiPnBhdGgzMTE4PC90aXRsZT4mI3hhOwkJCTxwYXRoIGlkPSJwYXRoMTAwNjEzIiBpbmtzY2FwZTpjb25uZWN0b3ItY3VydmF0dXJlPSIwIiBzdHlsZT0iZmlsbDojRTVFNUU1OyIgZD0iTTEwLjM1LDkuMnYzNy40NiAgICAgQzcuMDgsNDguMTIsMy41Nyw0OC45NywwLDQ5LjE5VjkuMjlMMTAuMzUsOS4yeiIvPiYjeGE7CQk8L2c+JiN4YTsJCTxnIGlkPSJzaGFwZTM1MDItNiI+JiN4YTsJCQk8dGl0bGUgaWQ9InRpdGxlMTAwNjE2Ij5wYXRoMzEyMDwvdGl0bGU+JiN4YTsJCQk8cGF0aCBpZD0icGF0aDEwMDYxOCIgaW5rc2NhcGU6Y29ubmVjdG9yLWN1cnZhdHVyZT0iMCIgc3R5bGU9ImZpbGw6bm9uZTsiIGQ9Ik0wLDkuMjh2MzMuMzZjMCwzLjQyLDcuNDYsNi4zNywxNy4yNiw2LjU1aDAuMzcgICAgIGM5Ljk3LTAuMTEsMTcuNjMtMy4wOSwxNy42My02LjU1VjguOThMMCw5LjI4eiIvPiYjeGE7CQkJJiN4YTsJCQkJPHBhdGggaWQ9InBhdGgxMDA2MjAiIGlua3NjYXBlOmNvbm5lY3Rvci1jdXJ2YXR1cmU9IjAiIHN0eWxlPSJmaWxsOm5vbmU7c3Ryb2tlOiM1NTZBOEE7c3Ryb2tlLXdpZHRoOjEuNTtzdHJva2UtbWl0ZXJsaW1pdDozOyIgZD0iICAgICBNMCw5LjI4djMzLjM2YzAsMy40Miw3LjQ2LDYuMzcsMTcuMjYsNi41NWgwLjM3YzkuOTctMC4xMSwxNy42My0zLjA5LDE3LjYzLTYuNTVWOC45OCIvPiYjeGE7CQk8L2c+JiN4YTsJCTxnIGlkPSJzaGFwZTM1MDMtOSIgdHJhbnNmb3JtPSJ0cmFuc2xhdGUoMC4wNDUwMTQ2LC0zMy40NTM0KSI+JiN4YTsJCQk8dGl0bGUgaWQ9InRpdGxlMTAwNjIzIj5wYXRoMzEyMjwvdGl0bGU+JiN4YTsJCQkmI3hhOwkJCQk8cGF0aCBpZD0icGF0aDEwMDYyNSIgaW5rc2NhcGU6Y29ubmVjdG9yLWN1cnZhdHVyZT0iMCIgc3R5bGU9ImZpbGw6I0JBRDgwQTtzdHJva2U6IzU1NkE4QTtzdHJva2Utd2lkdGg6MS41O3N0cm9rZS1taXRlcmxpbWl0OjM7IiBkPSIgICAgIE0zNS4yNiw0Mi44MmMwLDMuNTItNy44OSw2LjM3LTE3LjYzLDYuMzdTMCw0Ni4zNCwwLDQyLjgyczguMTMtNi4zNywxNy44Ni02LjM3UzM1LjI2LDM5LjMsMzUuMjYsNDIuODJ6Ii8+JiN4YTsJCTwvZz4mI3hhOwk8L2c+JiN4YTs8L2c+JiN4YTs8L3N2Zz4=;" parent="1" vertex="1">
          <mxGeometry x="400" y="339.14" width="50" height="64.86" as="geometry"/>
        </mxCell>
        <mxCell id="uhcvnhkE3gYi9Mrpb9Jq-2" value="" style="shape=image;verticalLabelPosition=bottom;labelBackgroundColor=#ffffff;verticalAlign=top;aspect=fixed;imageAspect=0;image=data:image/svg+xml,PHN2ZyB4bWxuczpjYz0iaHR0cDovL2NyZWF0aXZlY29tbW9ucy5vcmcvbnMjIiB4bWxuczpkYz0iaHR0cDovL3B1cmwub3JnL2RjL2VsZW1lbnRzLzEuMS8iIHhtbG5zOmlua3NjYXBlPSJodHRwOi8vd3d3Lmlua3NjYXBlLm9yZy9uYW1lc3BhY2VzL2lua3NjYXBlIiB4bWxuczpyZGY9Imh0dHA6Ly93d3cudzMub3JnLzE5OTkvMDIvMjItcmRmLXN5bnRheC1ucyMiIHhtbG5zOnNvZGlwb2RpPSJodHRwOi8vc29kaXBvZGkuc291cmNlZm9yZ2UubmV0L0RURC9zb2RpcG9kaS0wLmR0ZCIgeG1sbnM6c3ZnPSJodHRwOi8vd3d3LnczLm9yZy8yMDAwL3N2ZyIgeG1sbnM9Imh0dHA6Ly93d3cudzMub3JnLzIwMDAvc3ZnIiB4bWxuczp4bGluaz0iaHR0cDovL3d3dy53My5vcmcvMTk5OS94bGluayIgdmVyc2lvbj0iMS4xIiBpZD0ic3ZnMTAwNjMxIiBpbmtzY2FwZTp2ZXJzaW9uPSIwLjkyLjMgKDI0MDU1NDYsIDIwMTgtMDMtMTEpIiBzb2RpcG9kaTpkb2NuYW1lPSJnZW5lcmljX2RhdGFiYXNlX2dyZWVuLnN2ZyIgeD0iMHB4IiB5PSIwcHgiIHZpZXdCb3g9IjAgMCAzNi44IDQ3LjY5IiBzdHlsZT0iZW5hYmxlLWJhY2tncm91bmQ6bmV3IDAgMCAzNi44IDQ3LjY5OyIgeG1sOnNwYWNlPSJwcmVzZXJ2ZSI+JiN4YTs8c29kaXBvZGk6bmFtZWR2aWV3IGJvcmRlcmNvbG9yPSIjNjY2NjY2IiBib3JkZXJvcGFjaXR5PSIxIiBmaXQtbWFyZ2luLWJvdHRvbT0iMCIgZml0LW1hcmdpbi1sZWZ0PSIwIiBmaXQtbWFyZ2luLXJpZ2h0PSIwIiBmaXQtbWFyZ2luLXRvcD0iMCIgZ3JpZHRvbGVyYW5jZT0iMTAiIGd1aWRldG9sZXJhbmNlPSIxMCIgaWQ9Im5hbWVkdmlldzEwMDYzMyIgaW5rc2NhcGU6Y3VycmVudC1sYXllcj0ic3ZnMTAwNjMxIiBpbmtzY2FwZTpjeD0iMjQuNTM3NjMyIiBpbmtzY2FwZTpjeT0iMzEuNzkxNjI0IiBpbmtzY2FwZTpwYWdlb3BhY2l0eT0iMCIgaW5rc2NhcGU6cGFnZXNoYWRvdz0iMiIgaW5rc2NhcGU6d2luZG93LWhlaWdodD0iMTAxNyIgaW5rc2NhcGU6d2luZG93LW1heGltaXplZD0iMSIgaW5rc2NhcGU6d2luZG93LXdpZHRoPSIxOTIwIiBpbmtzY2FwZTp3aW5kb3cteD0iLTgiIGlua3NjYXBlOndpbmRvdy15PSItOCIgaW5rc2NhcGU6em9vbT0iMTMuMjE4NDgxIiBvYmplY3R0b2xlcmFuY2U9IjEwIiBwYWdlY29sb3I9IiNmZmZmZmYiIHNob3dncmlkPSJmYWxzZSI+JiN4YTsJPC9zb2RpcG9kaTpuYW1lZHZpZXc+JiN4YTs8ZyBpZD0iZzEwMDYyOSIgdHJhbnNmb3JtPSJ0cmFuc2xhdGUoLTAuNzUsLTAuNzQ2NjI5MTcpIj4mI3hhOwk8dGl0bGUgaWQ9InRpdGxlMTAwNjAyIj5QYWdlLTE8L3RpdGxlPiYjeGE7CTxnIGlkPSJncm91cDM0OTktMSIgdHJhbnNmb3JtPSJ0cmFuc2xhdGUoMS41LC0xLjUpIj4mI3hhOwkJPHRpdGxlIGlkPSJ0aXRsZTEwMDYwNCI+R2VuZXJpYyBEYXRhYmFzZSAoR3JlZW4pPC90aXRsZT4mI3hhOwkJPGcgaWQ9InNoYXBlMzUwMC0yIj4mI3hhOwkJCTx0aXRsZSBpZD0idGl0bGUxMDA2MDYiPnBhdGgzMTE2PC90aXRsZT4mI3hhOwkJCTxwYXRoIGlkPSJwYXRoMTAwNjA4IiBpbmtzY2FwZTpjb25uZWN0b3ItY3VydmF0dXJlPSIwIiBzdHlsZT0iZmlsbDojRkZGRkZGOyIgZD0iTTMxLjgsOS4wMUwyMS40NSw5LjFMMCw5LjI4djMzLjM2ICAgICBjMCwzLjQyLDcuNSw2LjM3LDE3LjI2LDYuNTVoMC4zN2MxLjMyLDAsMi42LTAuMDcsMy44Mi0wLjE5YzMuNTctMC4yMiw3LjA4LTEuMDcsMTAuMzUtMi41M2MyLjE5LTEuMDksMy40Ni0yLjQyLDMuNDYtMy44M1Y4Ljk4ICAgICBMMzEuOCw5LjAxeiIvPiYjeGE7CQk8L2c+JiN4YTsJCTxnIGlkPSJzaGFwZTM1MDEtNCIgdHJhbnNmb3JtPSJ0cmFuc2xhdGUoMjEuMTU2OSwtMC4xODc1NjEpIj4mI3hhOwkJCTx0aXRsZSBpZD0idGl0bGUxMDA2MTEiPnBhdGgzMTE4PC90aXRsZT4mI3hhOwkJCTxwYXRoIGlkPSJwYXRoMTAwNjEzIiBpbmtzY2FwZTpjb25uZWN0b3ItY3VydmF0dXJlPSIwIiBzdHlsZT0iZmlsbDojRTVFNUU1OyIgZD0iTTEwLjM1LDkuMnYzNy40NiAgICAgQzcuMDgsNDguMTIsMy41Nyw0OC45NywwLDQ5LjE5VjkuMjlMMTAuMzUsOS4yeiIvPiYjeGE7CQk8L2c+JiN4YTsJCTxnIGlkPSJzaGFwZTM1MDItNiI+JiN4YTsJCQk8dGl0bGUgaWQ9InRpdGxlMTAwNjE2Ij5wYXRoMzEyMDwvdGl0bGU+JiN4YTsJCQk8cGF0aCBpZD0icGF0aDEwMDYxOCIgaW5rc2NhcGU6Y29ubmVjdG9yLWN1cnZhdHVyZT0iMCIgc3R5bGU9ImZpbGw6bm9uZTsiIGQ9Ik0wLDkuMjh2MzMuMzZjMCwzLjQyLDcuNDYsNi4zNywxNy4yNiw2LjU1aDAuMzcgICAgIGM5Ljk3LTAuMTEsMTcuNjMtMy4wOSwxNy42My02LjU1VjguOThMMCw5LjI4eiIvPiYjeGE7CQkJJiN4YTsJCQkJPHBhdGggaWQ9InBhdGgxMDA2MjAiIGlua3NjYXBlOmNvbm5lY3Rvci1jdXJ2YXR1cmU9IjAiIHN0eWxlPSJmaWxsOm5vbmU7c3Ryb2tlOiM1NTZBOEE7c3Ryb2tlLXdpZHRoOjEuNTtzdHJva2UtbWl0ZXJsaW1pdDozOyIgZD0iICAgICBNMCw5LjI4djMzLjM2YzAsMy40Miw3LjQ2LDYuMzcsMTcuMjYsNi41NWgwLjM3YzkuOTctMC4xMSwxNy42My0zLjA5LDE3LjYzLTYuNTVWOC45OCIvPiYjeGE7CQk8L2c+JiN4YTsJCTxnIGlkPSJzaGFwZTM1MDMtOSIgdHJhbnNmb3JtPSJ0cmFuc2xhdGUoMC4wNDUwMTQ2LC0zMy40NTM0KSI+JiN4YTsJCQk8dGl0bGUgaWQ9InRpdGxlMTAwNjIzIj5wYXRoMzEyMjwvdGl0bGU+JiN4YTsJCQkmI3hhOwkJCQk8cGF0aCBpZD0icGF0aDEwMDYyNSIgaW5rc2NhcGU6Y29ubmVjdG9yLWN1cnZhdHVyZT0iMCIgc3R5bGU9ImZpbGw6I0JBRDgwQTtzdHJva2U6IzU1NkE4QTtzdHJva2Utd2lkdGg6MS41O3N0cm9rZS1taXRlcmxpbWl0OjM7IiBkPSIgICAgIE0zNS4yNiw0Mi44MmMwLDMuNTItNy44OSw2LjM3LTE3LjYzLDYuMzdTMCw0Ni4zNCwwLDQyLjgyczguMTMtNi4zNywxNy44Ni02LjM3UzM1LjI2LDM5LjMsMzUuMjYsNDIuODJ6Ii8+JiN4YTsJCTwvZz4mI3hhOwk8L2c+JiN4YTs8L2c+JiN4YTs8L3N2Zz4=;" parent="1" vertex="1">
          <mxGeometry x="490" y="274.43" width="49" height="63.57" as="geometry"/>
        </mxCell>
        <mxCell id="uhcvnhkE3gYi9Mrpb9Jq-3" value="" style="shape=image;verticalLabelPosition=bottom;labelBackgroundColor=#ffffff;verticalAlign=top;aspect=fixed;imageAspect=0;image=data:image/svg+xml,PHN2ZyB4bWxuczpjYz0iaHR0cDovL2NyZWF0aXZlY29tbW9ucy5vcmcvbnMjIiB4bWxuczpkYz0iaHR0cDovL3B1cmwub3JnL2RjL2VsZW1lbnRzLzEuMS8iIHhtbG5zOmlua3NjYXBlPSJodHRwOi8vd3d3Lmlua3NjYXBlLm9yZy9uYW1lc3BhY2VzL2lua3NjYXBlIiB4bWxuczpyZGY9Imh0dHA6Ly93d3cudzMub3JnLzE5OTkvMDIvMjItcmRmLXN5bnRheC1ucyMiIHhtbG5zOnNvZGlwb2RpPSJodHRwOi8vc29kaXBvZGkuc291cmNlZm9yZ2UubmV0L0RURC9zb2RpcG9kaS0wLmR0ZCIgeG1sbnM6c3ZnPSJodHRwOi8vd3d3LnczLm9yZy8yMDAwL3N2ZyIgeG1sbnM9Imh0dHA6Ly93d3cudzMub3JnLzIwMDAvc3ZnIiB4bWxuczp4bGluaz0iaHR0cDovL3d3dy53My5vcmcvMTk5OS94bGluayIgdmVyc2lvbj0iMS4xIiBpZD0ic3ZnMTAwNjMxIiBpbmtzY2FwZTp2ZXJzaW9uPSIwLjkyLjMgKDI0MDU1NDYsIDIwMTgtMDMtMTEpIiBzb2RpcG9kaTpkb2NuYW1lPSJnZW5lcmljX2RhdGFiYXNlX2dyZWVuLnN2ZyIgeD0iMHB4IiB5PSIwcHgiIHZpZXdCb3g9IjAgMCAzNi44IDQ3LjY5IiBzdHlsZT0iZW5hYmxlLWJhY2tncm91bmQ6bmV3IDAgMCAzNi44IDQ3LjY5OyIgeG1sOnNwYWNlPSJwcmVzZXJ2ZSI+JiN4YTs8c29kaXBvZGk6bmFtZWR2aWV3IGJvcmRlcmNvbG9yPSIjNjY2NjY2IiBib3JkZXJvcGFjaXR5PSIxIiBmaXQtbWFyZ2luLWJvdHRvbT0iMCIgZml0LW1hcmdpbi1sZWZ0PSIwIiBmaXQtbWFyZ2luLXJpZ2h0PSIwIiBmaXQtbWFyZ2luLXRvcD0iMCIgZ3JpZHRvbGVyYW5jZT0iMTAiIGd1aWRldG9sZXJhbmNlPSIxMCIgaWQ9Im5hbWVkdmlldzEwMDYzMyIgaW5rc2NhcGU6Y3VycmVudC1sYXllcj0ic3ZnMTAwNjMxIiBpbmtzY2FwZTpjeD0iMjQuNTM3NjMyIiBpbmtzY2FwZTpjeT0iMzEuNzkxNjI0IiBpbmtzY2FwZTpwYWdlb3BhY2l0eT0iMCIgaW5rc2NhcGU6cGFnZXNoYWRvdz0iMiIgaW5rc2NhcGU6d2luZG93LWhlaWdodD0iMTAxNyIgaW5rc2NhcGU6d2luZG93LW1heGltaXplZD0iMSIgaW5rc2NhcGU6d2luZG93LXdpZHRoPSIxOTIwIiBpbmtzY2FwZTp3aW5kb3cteD0iLTgiIGlua3NjYXBlOndpbmRvdy15PSItOCIgaW5rc2NhcGU6em9vbT0iMTMuMjE4NDgxIiBvYmplY3R0b2xlcmFuY2U9IjEwIiBwYWdlY29sb3I9IiNmZmZmZmYiIHNob3dncmlkPSJmYWxzZSI+JiN4YTsJPC9zb2RpcG9kaTpuYW1lZHZpZXc+JiN4YTs8ZyBpZD0iZzEwMDYyOSIgdHJhbnNmb3JtPSJ0cmFuc2xhdGUoLTAuNzUsLTAuNzQ2NjI5MTcpIj4mI3hhOwk8dGl0bGUgaWQ9InRpdGxlMTAwNjAyIj5QYWdlLTE8L3RpdGxlPiYjeGE7CTxnIGlkPSJncm91cDM0OTktMSIgdHJhbnNmb3JtPSJ0cmFuc2xhdGUoMS41LC0xLjUpIj4mI3hhOwkJPHRpdGxlIGlkPSJ0aXRsZTEwMDYwNCI+R2VuZXJpYyBEYXRhYmFzZSAoR3JlZW4pPC90aXRsZT4mI3hhOwkJPGcgaWQ9InNoYXBlMzUwMC0yIj4mI3hhOwkJCTx0aXRsZSBpZD0idGl0bGUxMDA2MDYiPnBhdGgzMTE2PC90aXRsZT4mI3hhOwkJCTxwYXRoIGlkPSJwYXRoMTAwNjA4IiBpbmtzY2FwZTpjb25uZWN0b3ItY3VydmF0dXJlPSIwIiBzdHlsZT0iZmlsbDojRkZGRkZGOyIgZD0iTTMxLjgsOS4wMUwyMS40NSw5LjFMMCw5LjI4djMzLjM2ICAgICBjMCwzLjQyLDcuNSw2LjM3LDE3LjI2LDYuNTVoMC4zN2MxLjMyLDAsMi42LTAuMDcsMy44Mi0wLjE5YzMuNTctMC4yMiw3LjA4LTEuMDcsMTAuMzUtMi41M2MyLjE5LTEuMDksMy40Ni0yLjQyLDMuNDYtMy44M1Y4Ljk4ICAgICBMMzEuOCw5LjAxeiIvPiYjeGE7CQk8L2c+JiN4YTsJCTxnIGlkPSJzaGFwZTM1MDEtNCIgdHJhbnNmb3JtPSJ0cmFuc2xhdGUoMjEuMTU2OSwtMC4xODc1NjEpIj4mI3hhOwkJCTx0aXRsZSBpZD0idGl0bGUxMDA2MTEiPnBhdGgzMTE4PC90aXRsZT4mI3hhOwkJCTxwYXRoIGlkPSJwYXRoMTAwNjEzIiBpbmtzY2FwZTpjb25uZWN0b3ItY3VydmF0dXJlPSIwIiBzdHlsZT0iZmlsbDojRTVFNUU1OyIgZD0iTTEwLjM1LDkuMnYzNy40NiAgICAgQzcuMDgsNDguMTIsMy41Nyw0OC45NywwLDQ5LjE5VjkuMjlMMTAuMzUsOS4yeiIvPiYjeGE7CQk8L2c+JiN4YTsJCTxnIGlkPSJzaGFwZTM1MDItNiI+JiN4YTsJCQk8dGl0bGUgaWQ9InRpdGxlMTAwNjE2Ij5wYXRoMzEyMDwvdGl0bGU+JiN4YTsJCQk8cGF0aCBpZD0icGF0aDEwMDYxOCIgaW5rc2NhcGU6Y29ubmVjdG9yLWN1cnZhdHVyZT0iMCIgc3R5bGU9ImZpbGw6bm9uZTsiIGQ9Ik0wLDkuMjh2MzMuMzZjMCwzLjQyLDcuNDYsNi4zNywxNy4yNiw2LjU1aDAuMzcgICAgIGM5Ljk3LTAuMTEsMTcuNjMtMy4wOSwxNy42My02LjU1VjguOThMMCw5LjI4eiIvPiYjeGE7CQkJJiN4YTsJCQkJPHBhdGggaWQ9InBhdGgxMDA2MjAiIGlua3NjYXBlOmNvbm5lY3Rvci1jdXJ2YXR1cmU9IjAiIHN0eWxlPSJmaWxsOm5vbmU7c3Ryb2tlOiM1NTZBOEE7c3Ryb2tlLXdpZHRoOjEuNTtzdHJva2UtbWl0ZXJsaW1pdDozOyIgZD0iICAgICBNMCw5LjI4djMzLjM2YzAsMy40Miw3LjQ2LDYuMzcsMTcuMjYsNi41NWgwLjM3YzkuOTctMC4xMSwxNy42My0zLjA5LDE3LjYzLTYuNTVWOC45OCIvPiYjeGE7CQk8L2c+JiN4YTsJCTxnIGlkPSJzaGFwZTM1MDMtOSIgdHJhbnNmb3JtPSJ0cmFuc2xhdGUoMC4wNDUwMTQ2LC0zMy40NTM0KSI+JiN4YTsJCQk8dGl0bGUgaWQ9InRpdGxlMTAwNjIzIj5wYXRoMzEyMjwvdGl0bGU+JiN4YTsJCQkmI3hhOwkJCQk8cGF0aCBpZD0icGF0aDEwMDYyNSIgaW5rc2NhcGU6Y29ubmVjdG9yLWN1cnZhdHVyZT0iMCIgc3R5bGU9ImZpbGw6I0JBRDgwQTtzdHJva2U6IzU1NkE4QTtzdHJva2Utd2lkdGg6MS41O3N0cm9rZS1taXRlcmxpbWl0OjM7IiBkPSIgICAgIE0zNS4yNiw0Mi44MmMwLDMuNTItNy44OSw2LjM3LTE3LjYzLDYuMzdTMCw0Ni4zNCwwLDQyLjgyczguMTMtNi4zNywxNy44Ni02LjM3UzM1LjI2LDM5LjMsMzUuMjYsNDIuODJ6Ii8+JiN4YTsJCTwvZz4mI3hhOwk8L2c+JiN4YTs8L2c+JiN4YTs8L3N2Zz4=;" parent="1" vertex="1">
          <mxGeometry x="600" y="330" width="57.04" height="74" as="geometry"/>
        </mxCell>
        <mxCell id="uhcvnhkE3gYi9Mrpb9Jq-5" value="" style="shape=image;verticalLabelPosition=bottom;labelBackgroundColor=#ffffff;verticalAlign=top;aspect=fixed;imageAspect=0;image=data:image/svg+xml,PHN2ZyB4bWxuczpjYz0iaHR0cDovL2NyZWF0aXZlY29tbW9ucy5vcmcvbnMjIiB4bWxuczpkYz0iaHR0cDovL3B1cmwub3JnL2RjL2VsZW1lbnRzLzEuMS8iIHhtbG5zOmlua3NjYXBlPSJodHRwOi8vd3d3Lmlua3NjYXBlLm9yZy9uYW1lc3BhY2VzL2lua3NjYXBlIiB4bWxuczpyZGY9Imh0dHA6Ly93d3cudzMub3JnLzE5OTkvMDIvMjItcmRmLXN5bnRheC1ucyMiIHhtbG5zOnNvZGlwb2RpPSJodHRwOi8vc29kaXBvZGkuc291cmNlZm9yZ2UubmV0L0RURC9zb2RpcG9kaS0wLmR0ZCIgeG1sbnM6c3ZnPSJodHRwOi8vd3d3LnczLm9yZy8yMDAwL3N2ZyIgeG1sbnM9Imh0dHA6Ly93d3cudzMub3JnLzIwMDAvc3ZnIiB4bWxuczp4bGluaz0iaHR0cDovL3d3dy53My5vcmcvMTk5OS94bGluayIgdmVyc2lvbj0iMS4xIiBpZD0ic3ZnMTA4MDUyIiBpbmtzY2FwZTp2ZXJzaW9uPSIwLjkyLjMgKDI0MDU1NDYsIDIwMTgtMDMtMTEpIiBzb2RpcG9kaTpkb2NuYW1lPSJ0ZWFtLnN2ZyIgeD0iMHB4IiB5PSIwcHgiIHZpZXdCb3g9IjAgMCA0OS41IDQ5LjUiIHN0eWxlPSJlbmFibGUtYmFja2dyb3VuZDpuZXcgMCAwIDQ5LjUgNDkuNTsiIHhtbDpzcGFjZT0icHJlc2VydmUiPiYjeGE7PHNvZGlwb2RpOm5hbWVkdmlldyBib3JkZXJjb2xvcj0iIzY2NjY2NiIgYm9yZGVyb3BhY2l0eT0iMSIgZml0LW1hcmdpbi1ib3R0b209IjAiIGZpdC1tYXJnaW4tbGVmdD0iMCIgZml0LW1hcmdpbi1yaWdodD0iMCIgZml0LW1hcmdpbi10b3A9IjAiIGdyaWR0b2xlcmFuY2U9IjEwIiBndWlkZXRvbGVyYW5jZT0iMTAiIGlkPSJuYW1lZHZpZXcxMDgwNTQiIGlua3NjYXBlOmN1cnJlbnQtbGF5ZXI9InN2ZzEwODA1MiIgaW5rc2NhcGU6Y3g9IjMyLjk5OTk4NSIgaW5rc2NhcGU6Y3k9IjMyLjk5OTk4NSIgaW5rc2NhcGU6cGFnZW9wYWNpdHk9IjAiIGlua3NjYXBlOnBhZ2VzaGFkb3c9IjIiIGlua3NjYXBlOndpbmRvdy1oZWlnaHQ9IjEwMTciIGlua3NjYXBlOndpbmRvdy1tYXhpbWl6ZWQ9IjEiIGlua3NjYXBlOndpbmRvdy13aWR0aD0iMTkyMCIgaW5rc2NhcGU6d2luZG93LXg9Ii04IiBpbmtzY2FwZTp3aW5kb3cteT0iLTgiIGlua3NjYXBlOnpvb209IjEyLjc1MDAwNiIgb2JqZWN0dG9sZXJhbmNlPSIxMCIgcGFnZWNvbG9yPSIjZmZmZmZmIiBzaG93Z3JpZD0iZmFsc2UiPiYjeGE7CTwvc29kaXBvZGk6bmFtZWR2aWV3PiYjeGE7PGcgaWQ9ImcxMDgwNTAiIHRyYW5zZm9ybT0idHJhbnNsYXRlKC0wLjc1LC0wLjc1KSI+JiN4YTsJPHRpdGxlIGlkPSJ0aXRsZTEwNzk5MiI+UGFnZS0xPC90aXRsZT4mI3hhOwk8ZyBpZD0iZ3JvdXA1MDIyLTEiIHRyYW5zZm9ybT0idHJhbnNsYXRlKDEuNSwtMS41KSI+JiN4YTsJCTx0aXRsZSBpZD0idGl0bGUxMDc5OTQiPlRlYW08L3RpdGxlPiYjeGE7CQk8ZyBpZD0ic2hhcGU1MDIzLTIiPiYjeGE7CQkJPHRpdGxlIGlkPSJ0aXRsZTEwNzk5NiI+Y2lyY2xlNjUyNjwvdGl0bGU+JiN4YTsJCQk8Y2lyY2xlIGlkPSJlbGxpcHNlMTA3OTk4IiBzdHlsZT0iZmlsbDojRkZGRkZGO3N0cm9rZTojNTU2QThBO3N0cm9rZS13aWR0aDoxLjU7c3Ryb2tlLW1pdGVybGltaXQ6MzsiIGN4PSIyNCIgY3k9IjI3IiByPSIyNCIvPiYjeGE7CQk8L2c+JiN4YTsJCTxnIGlkPSJncm91cDUwMjQtNCIgdHJhbnNmb3JtPSJ0cmFuc2xhdGUoNS44MTI1LC04LjI1KSI+JiN4YTsJCQk8dGl0bGUgaWQ9InRpdGxlMTA4MDAxIj5nNjU0NjwvdGl0bGU+JiN4YTsJCQk8ZyBpZD0iZ3JvdXA1MDI1LTUiIHRyYW5zZm9ybT0idHJhbnNsYXRlKDAsLTEwLjUpIj4mI3hhOwkJCQk8dGl0bGUgaWQ9InRpdGxlMTA4MDAzIj5nNjUzMjwvdGl0bGU+JiN4YTsJCQkJPGcgaWQ9InNoYXBlNTAyNi02IiB0cmFuc2Zvcm09InRyYW5zbGF0ZSgzLC04LjI1KSI+JiN4YTsJCQkJCTx0aXRsZSBpZD0idGl0bGUxMDgwMDUiPmNpcmNsZTY1Mjg8L3RpdGxlPiYjeGE7CQkJCQkmI3hhOwkJCQkJCTxjaXJjbGUgaWQ9ImVsbGlwc2UxMDgwMDciIHN0eWxlPSJmaWxsOiNFNkU3RTg7c3Ryb2tlOiM1NTZBOEE7c3Ryb2tlLXdpZHRoOjEuNTtzdHJva2UtbWl0ZXJsaW1pdDozOyIgY3g9IjUuNjMiIGN5PSI0NS4zOCIgcj0iNS42MyIvPiYjeGE7CQkJCTwvZz4mI3hhOwkJCQk8ZyBpZD0ic2hhcGU1MDI3LTgiPiYjeGE7CQkJCQk8dGl0bGUgaWQ9InRpdGxlMTA4MDEwIj5wYXRoNjUzMDwvdGl0bGU+JiN4YTsJCQkJCTxwYXRoIGlkPSJwYXRoMTA4MDEyIiBpbmtzY2FwZTpjb25uZWN0b3ItY3VydmF0dXJlPSIwIiBzdHlsZT0iZmlsbDojRTZFN0U4OyIgZD0iTTAsNTFjMC4yLTQuNzYsNC4yMi04LjQ2LDguOTgtOC4yNyAgICAgICBjNC40OCwwLjE5LDguMDgsMy43OCw4LjI3LDguMjdIMHoiLz4mI3hhOwkJCQkJJiN4YTsJCQkJCQk8cGF0aCBpZD0icGF0aDEwODAxNCIgaW5rc2NhcGU6Y29ubmVjdG9yLWN1cnZhdHVyZT0iMCIgc3R5bGU9ImZpbGw6bm9uZTtzdHJva2U6IzU1NkE4QTtzdHJva2Utd2lkdGg6MS41O3N0cm9rZS1taXRlcmxpbWl0OjM7IiBkPSIgICAgICAgTTAsNTFjMC4yLTQuNzYsNC4yMi04LjQ2LDguOTgtOC4yN2M0LjQ4LDAuMTksOC4wOCwzLjc4LDguMjcsOC4yNyIvPiYjeGE7CQkJCTwvZz4mI3hhOwkJCTwvZz4mI3hhOwkJCTxnIGlkPSJncm91cDUwMjgtMTEiIHRyYW5zZm9ybT0idHJhbnNsYXRlKDE5LjEyNSwtMTAuNSkiPiYjeGE7CQkJCTx0aXRsZSBpZD0idGl0bGUxMDgwMTgiPmc2NTM4PC90aXRsZT4mI3hhOwkJCQk8ZyBpZD0ic2hhcGU1MDI5LTEyIiB0cmFuc2Zvcm09InRyYW5zbGF0ZSgzLC04LjI1KSI+JiN4YTsJCQkJCTx0aXRsZSBpZD0idGl0bGUxMDgwMjAiPmNpcmNsZTY1MzQ8L3RpdGxlPiYjeGE7CQkJCQkmI3hhOwkJCQkJCTxjaXJjbGUgaWQ9ImVsbGlwc2UxMDgwMjIiIHN0eWxlPSJmaWxsOiNFNkU3RTg7c3Ryb2tlOiM1NTZBOEE7c3Ryb2tlLXdpZHRoOjEuNTtzdHJva2UtbWl0ZXJsaW1pdDozOyIgY3g9IjUuNjMiIGN5PSI0NS4zOCIgcj0iNS42MyIvPiYjeGE7CQkJCTwvZz4mI3hhOwkJCQk8ZyBpZD0ic2hhcGU1MDMwLTE0Ij4mI3hhOwkJCQkJPHRpdGxlIGlkPSJ0aXRsZTEwODAyNSI+cGF0aDY1MzY8L3RpdGxlPiYjeGE7CQkJCQk8cGF0aCBpZD0icGF0aDEwODAyNyIgaW5rc2NhcGU6Y29ubmVjdG9yLWN1cnZhdHVyZT0iMCIgc3R5bGU9ImZpbGw6I0U2RTdFODsiIGQ9Ik0wLDUxYzAuMi00Ljc2LDQuMjItOC40Niw4Ljk4LTguMjcgICAgICAgYzQuNDgsMC4xOSw4LjA4LDMuNzgsOC4yNyw4LjI3SDB6Ii8+JiN4YTsJCQkJCSYjeGE7CQkJCQkJPHBhdGggaWQ9InBhdGgxMDgwMjkiIGlua3NjYXBlOmNvbm5lY3Rvci1jdXJ2YXR1cmU9IjAiIHN0eWxlPSJmaWxsOm5vbmU7c3Ryb2tlOiM1NTZBOEE7c3Ryb2tlLXdpZHRoOjEuNTtzdHJva2UtbWl0ZXJsaW1pdDozOyIgZD0iICAgICAgIE0wLDUxYzAuMi00Ljc2LDQuMjItOC40Niw4Ljk4LTguMjdjNC40OCwwLjE5LDguMDgsMy43OCw4LjI3LDguMjciLz4mI3hhOwkJCQk8L2c+JiN4YTsJCQk8L2c+JiN4YTsJCQk8ZyBpZD0iZ3JvdXA1MDMxLTE3IiB0cmFuc2Zvcm09InRyYW5zbGF0ZSg5KSI+JiN4YTsJCQkJPHRpdGxlIGlkPSJ0aXRsZTEwODAzMyI+ZzY1NDQ8L3RpdGxlPiYjeGE7CQkJCTxnIGlkPSJzaGFwZTUwMzItMTgiIHRyYW5zZm9ybT0idHJhbnNsYXRlKDMsLTguMjUpIj4mI3hhOwkJCQkJPHRpdGxlIGlkPSJ0aXRsZTEwODAzNSI+Y2lyY2xlNjU0MDwvdGl0bGU+JiN4YTsJCQkJCSYjeGE7CQkJCQkJPGNpcmNsZSBpZD0iZWxsaXBzZTEwODAzNyIgc3R5bGU9ImZpbGw6I0FBRTlGQjtzdHJva2U6IzU1NkE4QTtzdHJva2Utd2lkdGg6MS41O3N0cm9rZS1taXRlcmxpbWl0OjM7IiBjeD0iNS42MyIgY3k9IjQ1LjM4IiByPSI1LjYzIi8+JiN4YTsJCQkJPC9nPiYjeGE7CQkJCTxnIGlkPSJzaGFwZTUwMzMtMjAiPiYjeGE7CQkJCQk8dGl0bGUgaWQ9InRpdGxlMTA4MDQwIj5wYXRoNjU0MjwvdGl0bGU+JiN4YTsJCQkJCTxwYXRoIGlkPSJwYXRoMTA4MDQyIiBpbmtzY2FwZTpjb25uZWN0b3ItY3VydmF0dXJlPSIwIiBzdHlsZT0iZmlsbDojQUFFOUZCOyIgZD0iTTAsNTFjMC4yLTQuNzYsNC4yMi04LjQ2LDguOTgtOC4yNyAgICAgICBjNC40OCwwLjE5LDguMDgsMy43OCw4LjI3LDguMjdIMHoiLz4mI3hhOwkJCQkJJiN4YTsJCQkJCQk8cGF0aCBpZD0icGF0aDEwODA0NCIgaW5rc2NhcGU6Y29ubmVjdG9yLWN1cnZhdHVyZT0iMCIgc3R5bGU9ImZpbGw6bm9uZTtzdHJva2U6IzU1NkE4QTtzdHJva2Utd2lkdGg6MS41O3N0cm9rZS1taXRlcmxpbWl0OjM7IiBkPSIgICAgICAgTTAsNTFjMC4yLTQuNzYsNC4yMi04LjQ2LDguOTgtOC4yN2M0LjQ4LDAuMTksOC4wOCwzLjc4LDguMjcsOC4yNyIvPiYjeGE7CQkJCTwvZz4mI3hhOwkJCTwvZz4mI3hhOwkJPC9nPiYjeGE7CTwvZz4mI3hhOzwvZz4mI3hhOzwvc3ZnPg==;" parent="1" vertex="1">
          <mxGeometry x="330" y="230" width="50" height="50" as="geometry"/>
        </mxCell>
        <mxCell id="uhcvnhkE3gYi9Mrpb9Jq-15" value="" style="edgeStyle=orthogonalEdgeStyle;rounded=0;orthogonalLoop=1;jettySize=auto;html=1;" parent="1" source="uhcvnhkE3gYi9Mrpb9Jq-12" edge="1">
          <mxGeometry relative="1" as="geometry">
            <mxPoint x="530" y="60" as="targetPoint"/>
          </mxGeometry>
        </mxCell>
        <mxCell id="uhcvnhkE3gYi9Mrpb9Jq-12" value="" style="shape=image;verticalLabelPosition=bottom;labelBackgroundColor=#ffffff;verticalAlign=top;aspect=fixed;imageAspect=0;image=data:image/svg+xml,PHN2ZyB4bWxuczpjYz0iaHR0cDovL2NyZWF0aXZlY29tbW9ucy5vcmcvbnMjIiB4bWxuczpkYz0iaHR0cDovL3B1cmwub3JnL2RjL2VsZW1lbnRzLzEuMS8iIHhtbG5zOmlua3NjYXBlPSJodHRwOi8vd3d3Lmlua3NjYXBlLm9yZy9uYW1lc3BhY2VzL2lua3NjYXBlIiB4bWxuczpyZGY9Imh0dHA6Ly93d3cudzMub3JnLzE5OTkvMDIvMjItcmRmLXN5bnRheC1ucyMiIHhtbG5zOnNvZGlwb2RpPSJodHRwOi8vc29kaXBvZGkuc291cmNlZm9yZ2UubmV0L0RURC9zb2RpcG9kaS0wLmR0ZCIgeG1sbnM6c3ZnPSJodHRwOi8vd3d3LnczLm9yZy8yMDAwL3N2ZyIgeG1sbnM9Imh0dHA6Ly93d3cudzMub3JnLzIwMDAvc3ZnIiB4bWxuczp4bGluaz0iaHR0cDovL3d3dy53My5vcmcvMTk5OS94bGluayIgdmVyc2lvbj0iMS4xIiBpZD0ic3ZnMTA4MDUyIiBpbmtzY2FwZTp2ZXJzaW9uPSIwLjkyLjMgKDI0MDU1NDYsIDIwMTgtMDMtMTEpIiBzb2RpcG9kaTpkb2NuYW1lPSJ0ZWFtLnN2ZyIgeD0iMHB4IiB5PSIwcHgiIHZpZXdCb3g9IjAgMCA0OS41IDQ5LjUiIHN0eWxlPSJlbmFibGUtYmFja2dyb3VuZDpuZXcgMCAwIDQ5LjUgNDkuNTsiIHhtbDpzcGFjZT0icHJlc2VydmUiPiYjeGE7PHNvZGlwb2RpOm5hbWVkdmlldyBib3JkZXJjb2xvcj0iIzY2NjY2NiIgYm9yZGVyb3BhY2l0eT0iMSIgZml0LW1hcmdpbi1ib3R0b209IjAiIGZpdC1tYXJnaW4tbGVmdD0iMCIgZml0LW1hcmdpbi1yaWdodD0iMCIgZml0LW1hcmdpbi10b3A9IjAiIGdyaWR0b2xlcmFuY2U9IjEwIiBndWlkZXRvbGVyYW5jZT0iMTAiIGlkPSJuYW1lZHZpZXcxMDgwNTQiIGlua3NjYXBlOmN1cnJlbnQtbGF5ZXI9InN2ZzEwODA1MiIgaW5rc2NhcGU6Y3g9IjMyLjk5OTk4NSIgaW5rc2NhcGU6Y3k9IjMyLjk5OTk4NSIgaW5rc2NhcGU6cGFnZW9wYWNpdHk9IjAiIGlua3NjYXBlOnBhZ2VzaGFkb3c9IjIiIGlua3NjYXBlOndpbmRvdy1oZWlnaHQ9IjEwMTciIGlua3NjYXBlOndpbmRvdy1tYXhpbWl6ZWQ9IjEiIGlua3NjYXBlOndpbmRvdy13aWR0aD0iMTkyMCIgaW5rc2NhcGU6d2luZG93LXg9Ii04IiBpbmtzY2FwZTp3aW5kb3cteT0iLTgiIGlua3NjYXBlOnpvb209IjEyLjc1MDAwNiIgb2JqZWN0dG9sZXJhbmNlPSIxMCIgcGFnZWNvbG9yPSIjZmZmZmZmIiBzaG93Z3JpZD0iZmFsc2UiPiYjeGE7CTwvc29kaXBvZGk6bmFtZWR2aWV3PiYjeGE7PGcgaWQ9ImcxMDgwNTAiIHRyYW5zZm9ybT0idHJhbnNsYXRlKC0wLjc1LC0wLjc1KSI+JiN4YTsJPHRpdGxlIGlkPSJ0aXRsZTEwNzk5MiI+UGFnZS0xPC90aXRsZT4mI3hhOwk8ZyBpZD0iZ3JvdXA1MDIyLTEiIHRyYW5zZm9ybT0idHJhbnNsYXRlKDEuNSwtMS41KSI+JiN4YTsJCTx0aXRsZSBpZD0idGl0bGUxMDc5OTQiPlRlYW08L3RpdGxlPiYjeGE7CQk8ZyBpZD0ic2hhcGU1MDIzLTIiPiYjeGE7CQkJPHRpdGxlIGlkPSJ0aXRsZTEwNzk5NiI+Y2lyY2xlNjUyNjwvdGl0bGU+JiN4YTsJCQk8Y2lyY2xlIGlkPSJlbGxpcHNlMTA3OTk4IiBzdHlsZT0iZmlsbDojRkZGRkZGO3N0cm9rZTojNTU2QThBO3N0cm9rZS13aWR0aDoxLjU7c3Ryb2tlLW1pdGVybGltaXQ6MzsiIGN4PSIyNCIgY3k9IjI3IiByPSIyNCIvPiYjeGE7CQk8L2c+JiN4YTsJCTxnIGlkPSJncm91cDUwMjQtNCIgdHJhbnNmb3JtPSJ0cmFuc2xhdGUoNS44MTI1LC04LjI1KSI+JiN4YTsJCQk8dGl0bGUgaWQ9InRpdGxlMTA4MDAxIj5nNjU0NjwvdGl0bGU+JiN4YTsJCQk8ZyBpZD0iZ3JvdXA1MDI1LTUiIHRyYW5zZm9ybT0idHJhbnNsYXRlKDAsLTEwLjUpIj4mI3hhOwkJCQk8dGl0bGUgaWQ9InRpdGxlMTA4MDAzIj5nNjUzMjwvdGl0bGU+JiN4YTsJCQkJPGcgaWQ9InNoYXBlNTAyNi02IiB0cmFuc2Zvcm09InRyYW5zbGF0ZSgzLC04LjI1KSI+JiN4YTsJCQkJCTx0aXRsZSBpZD0idGl0bGUxMDgwMDUiPmNpcmNsZTY1Mjg8L3RpdGxlPiYjeGE7CQkJCQkmI3hhOwkJCQkJCTxjaXJjbGUgaWQ9ImVsbGlwc2UxMDgwMDciIHN0eWxlPSJmaWxsOiNFNkU3RTg7c3Ryb2tlOiM1NTZBOEE7c3Ryb2tlLXdpZHRoOjEuNTtzdHJva2UtbWl0ZXJsaW1pdDozOyIgY3g9IjUuNjMiIGN5PSI0NS4zOCIgcj0iNS42MyIvPiYjeGE7CQkJCTwvZz4mI3hhOwkJCQk8ZyBpZD0ic2hhcGU1MDI3LTgiPiYjeGE7CQkJCQk8dGl0bGUgaWQ9InRpdGxlMTA4MDEwIj5wYXRoNjUzMDwvdGl0bGU+JiN4YTsJCQkJCTxwYXRoIGlkPSJwYXRoMTA4MDEyIiBpbmtzY2FwZTpjb25uZWN0b3ItY3VydmF0dXJlPSIwIiBzdHlsZT0iZmlsbDojRTZFN0U4OyIgZD0iTTAsNTFjMC4yLTQuNzYsNC4yMi04LjQ2LDguOTgtOC4yNyAgICAgICBjNC40OCwwLjE5LDguMDgsMy43OCw4LjI3LDguMjdIMHoiLz4mI3hhOwkJCQkJJiN4YTsJCQkJCQk8cGF0aCBpZD0icGF0aDEwODAxNCIgaW5rc2NhcGU6Y29ubmVjdG9yLWN1cnZhdHVyZT0iMCIgc3R5bGU9ImZpbGw6bm9uZTtzdHJva2U6IzU1NkE4QTtzdHJva2Utd2lkdGg6MS41O3N0cm9rZS1taXRlcmxpbWl0OjM7IiBkPSIgICAgICAgTTAsNTFjMC4yLTQuNzYsNC4yMi04LjQ2LDguOTgtOC4yN2M0LjQ4LDAuMTksOC4wOCwzLjc4LDguMjcsOC4yNyIvPiYjeGE7CQkJCTwvZz4mI3hhOwkJCTwvZz4mI3hhOwkJCTxnIGlkPSJncm91cDUwMjgtMTEiIHRyYW5zZm9ybT0idHJhbnNsYXRlKDE5LjEyNSwtMTAuNSkiPiYjeGE7CQkJCTx0aXRsZSBpZD0idGl0bGUxMDgwMTgiPmc2NTM4PC90aXRsZT4mI3hhOwkJCQk8ZyBpZD0ic2hhcGU1MDI5LTEyIiB0cmFuc2Zvcm09InRyYW5zbGF0ZSgzLC04LjI1KSI+JiN4YTsJCQkJCTx0aXRsZSBpZD0idGl0bGUxMDgwMjAiPmNpcmNsZTY1MzQ8L3RpdGxlPiYjeGE7CQkJCQkmI3hhOwkJCQkJCTxjaXJjbGUgaWQ9ImVsbGlwc2UxMDgwMjIiIHN0eWxlPSJmaWxsOiNFNkU3RTg7c3Ryb2tlOiM1NTZBOEE7c3Ryb2tlLXdpZHRoOjEuNTtzdHJva2UtbWl0ZXJsaW1pdDozOyIgY3g9IjUuNjMiIGN5PSI0NS4zOCIgcj0iNS42MyIvPiYjeGE7CQkJCTwvZz4mI3hhOwkJCQk8ZyBpZD0ic2hhcGU1MDMwLTE0Ij4mI3hhOwkJCQkJPHRpdGxlIGlkPSJ0aXRsZTEwODAyNSI+cGF0aDY1MzY8L3RpdGxlPiYjeGE7CQkJCQk8cGF0aCBpZD0icGF0aDEwODAyNyIgaW5rc2NhcGU6Y29ubmVjdG9yLWN1cnZhdHVyZT0iMCIgc3R5bGU9ImZpbGw6I0U2RTdFODsiIGQ9Ik0wLDUxYzAuMi00Ljc2LDQuMjItOC40Niw4Ljk4LTguMjcgICAgICAgYzQuNDgsMC4xOSw4LjA4LDMuNzgsOC4yNyw4LjI3SDB6Ii8+JiN4YTsJCQkJCSYjeGE7CQkJCQkJPHBhdGggaWQ9InBhdGgxMDgwMjkiIGlua3NjYXBlOmNvbm5lY3Rvci1jdXJ2YXR1cmU9IjAiIHN0eWxlPSJmaWxsOm5vbmU7c3Ryb2tlOiM1NTZBOEE7c3Ryb2tlLXdpZHRoOjEuNTtzdHJva2UtbWl0ZXJsaW1pdDozOyIgZD0iICAgICAgIE0wLDUxYzAuMi00Ljc2LDQuMjItOC40Niw4Ljk4LTguMjdjNC40OCwwLjE5LDguMDgsMy43OCw4LjI3LDguMjciLz4mI3hhOwkJCQk8L2c+JiN4YTsJCQk8L2c+JiN4YTsJCQk8ZyBpZD0iZ3JvdXA1MDMxLTE3IiB0cmFuc2Zvcm09InRyYW5zbGF0ZSg5KSI+JiN4YTsJCQkJPHRpdGxlIGlkPSJ0aXRsZTEwODAzMyI+ZzY1NDQ8L3RpdGxlPiYjeGE7CQkJCTxnIGlkPSJzaGFwZTUwMzItMTgiIHRyYW5zZm9ybT0idHJhbnNsYXRlKDMsLTguMjUpIj4mI3hhOwkJCQkJPHRpdGxlIGlkPSJ0aXRsZTEwODAzNSI+Y2lyY2xlNjU0MDwvdGl0bGU+JiN4YTsJCQkJCSYjeGE7CQkJCQkJPGNpcmNsZSBpZD0iZWxsaXBzZTEwODAzNyIgc3R5bGU9ImZpbGw6I0FBRTlGQjtzdHJva2U6IzU1NkE4QTtzdHJva2Utd2lkdGg6MS41O3N0cm9rZS1taXRlcmxpbWl0OjM7IiBjeD0iNS42MyIgY3k9IjQ1LjM4IiByPSI1LjYzIi8+JiN4YTsJCQkJPC9nPiYjeGE7CQkJCTxnIGlkPSJzaGFwZTUwMzMtMjAiPiYjeGE7CQkJCQk8dGl0bGUgaWQ9InRpdGxlMTA4MDQwIj5wYXRoNjU0MjwvdGl0bGU+JiN4YTsJCQkJCTxwYXRoIGlkPSJwYXRoMTA4MDQyIiBpbmtzY2FwZTpjb25uZWN0b3ItY3VydmF0dXJlPSIwIiBzdHlsZT0iZmlsbDojQUFFOUZCOyIgZD0iTTAsNTFjMC4yLTQuNzYsNC4yMi04LjQ2LDguOTgtOC4yNyAgICAgICBjNC40OCwwLjE5LDguMDgsMy43OCw4LjI3LDguMjdIMHoiLz4mI3hhOwkJCQkJJiN4YTsJCQkJCQk8cGF0aCBpZD0icGF0aDEwODA0NCIgaW5rc2NhcGU6Y29ubmVjdG9yLWN1cnZhdHVyZT0iMCIgc3R5bGU9ImZpbGw6bm9uZTtzdHJva2U6IzU1NkE4QTtzdHJva2Utd2lkdGg6MS41O3N0cm9rZS1taXRlcmxpbWl0OjM7IiBkPSIgICAgICAgTTAsNTFjMC4yLTQuNzYsNC4yMi04LjQ2LDguOTgtOC4yN2M0LjQ4LDAuMTksOC4wOCwzLjc4LDguMjcsOC4yNyIvPiYjeGE7CQkJCTwvZz4mI3hhOwkJCTwvZz4mI3hhOwkJPC9nPiYjeGE7CTwvZz4mI3hhOzwvZz4mI3hhOzwvc3ZnPg==;" parent="1" vertex="1">
          <mxGeometry x="505" y="140" width="50" height="50" as="geometry"/>
        </mxCell>
        <mxCell id="uhcvnhkE3gYi9Mrpb9Jq-13" value="" style="shape=image;verticalLabelPosition=bottom;labelBackgroundColor=#ffffff;verticalAlign=top;aspect=fixed;imageAspect=0;image=data:image/svg+xml,PHN2ZyB4bWxuczpjYz0iaHR0cDovL2NyZWF0aXZlY29tbW9ucy5vcmcvbnMjIiB4bWxuczpkYz0iaHR0cDovL3B1cmwub3JnL2RjL2VsZW1lbnRzLzEuMS8iIHhtbG5zOmlua3NjYXBlPSJodHRwOi8vd3d3Lmlua3NjYXBlLm9yZy9uYW1lc3BhY2VzL2lua3NjYXBlIiB4bWxuczpyZGY9Imh0dHA6Ly93d3cudzMub3JnLzE5OTkvMDIvMjItcmRmLXN5bnRheC1ucyMiIHhtbG5zOnNvZGlwb2RpPSJodHRwOi8vc29kaXBvZGkuc291cmNlZm9yZ2UubmV0L0RURC9zb2RpcG9kaS0wLmR0ZCIgeG1sbnM6c3ZnPSJodHRwOi8vd3d3LnczLm9yZy8yMDAwL3N2ZyIgeG1sbnM9Imh0dHA6Ly93d3cudzMub3JnLzIwMDAvc3ZnIiB4bWxuczp4bGluaz0iaHR0cDovL3d3dy53My5vcmcvMTk5OS94bGluayIgdmVyc2lvbj0iMS4xIiBpZD0ic3ZnNzI4NDgiIGlua3NjYXBlOnZlcnNpb249IjAuOTIuMyAoMjQwNTU0NiwgMjAxOC0wMy0xMSkiIHNvZGlwb2RpOmRvY25hbWU9ImNvc3RzLnN2ZyIgeD0iMHB4IiB5PSIwcHgiIHZpZXdCb3g9IjAgMCAzMyAzNC41MSIgc3R5bGU9ImVuYWJsZS1iYWNrZ3JvdW5kOm5ldyAwIDAgMzMgMzQuNTE7IiB4bWw6c3BhY2U9InByZXNlcnZlIj4mI3hhOzxzb2RpcG9kaTpuYW1lZHZpZXcgYm9yZGVyY29sb3I9IiM2NjY2NjYiIGJvcmRlcm9wYWNpdHk9IjEiIGZpdC1tYXJnaW4tYm90dG9tPSIwIiBmaXQtbWFyZ2luLWxlZnQ9IjAiIGZpdC1tYXJnaW4tcmlnaHQ9IjAiIGZpdC1tYXJnaW4tdG9wPSIwIiBncmlkdG9sZXJhbmNlPSIxMCIgZ3VpZGV0b2xlcmFuY2U9IjEwIiBpZD0ibmFtZWR2aWV3NzI4NTAiIGlua3NjYXBlOmN1cnJlbnQtbGF5ZXI9InN2ZzcyODQ4IiBpbmtzY2FwZTpjeD0iMjIuMDAwMDE2IiBpbmtzY2FwZTpjeT0iMjMuMDAzNzUiIGlua3NjYXBlOnBhZ2VvcGFjaXR5PSIwIiBpbmtzY2FwZTpwYWdlc2hhZG93PSIyIiBpbmtzY2FwZTp3aW5kb3ctaGVpZ2h0PSIxMDE3IiBpbmtzY2FwZTp3aW5kb3ctbWF4aW1pemVkPSIxIiBpbmtzY2FwZTp3aW5kb3ctd2lkdGg9IjE5MjAiIGlua3NjYXBlOndpbmRvdy14PSItOCIgaW5rc2NhcGU6d2luZG93LXk9Ii04IiBpbmtzY2FwZTp6b29tPSIxOC4wNTUyNzkiIG9iamVjdHRvbGVyYW5jZT0iMTAiIHBhZ2Vjb2xvcj0iI2ZmZmZmZiIgc2hvd2dyaWQ9ImZhbHNlIj4mI3hhOwk8L3NvZGlwb2RpOm5hbWVkdmlldz4mI3hhOzxnIGlkPSJnNzI4NDYiIHRyYW5zZm9ybT0idHJhbnNsYXRlKC0wLjc1LC0wLjc1KSI+JiN4YTsJPHRpdGxlIGlkPSJ0aXRsZTcyODIxIj5QYWdlLTE8L3RpdGxlPiYjeGE7CTxnIGlkPSJncm91cDQ3MDAtMSIgdHJhbnNmb3JtPSJ0cmFuc2xhdGUoMC43NSwtMC43NSkiPiYjeGE7CQk8dGl0bGUgaWQ9InRpdGxlNzI4MjMiPkNvc3RzPC90aXRsZT4mI3hhOwkJPGcgaWQ9InNoYXBlNDcwMS0yIj4mI3hhOwkJCTx0aXRsZSBpZD0idGl0bGU3MjgyNSI+cGF0aDcwODI8L3RpdGxlPiYjeGE7CQkJPHBhdGggaWQ9InBhdGg3MjgyNyIgaW5rc2NhcGU6Y29ubmVjdG9yLWN1cnZhdHVyZT0iMCIgc3R5bGU9ImZpbGw6I0Y0Q0ExNDsiIGQ9Ik0xNi41LDEuNUMyNS42MSwxLjUsMzMsOS4yMywzMywxOC43NiAgICAgcy03LjM5LDE3LjI1LTE2LjUsMTcuMjVTMCwyOC4yOSwwLDE4Ljc2UzcuMzksMS41LDE2LjUsMS41eiIvPiYjeGE7CQk8L2c+JiN4YTsJCTxnIGlkPSJzaGFwZTQ3MDItNCIgdHJhbnNmb3JtPSJ0cmFuc2xhdGUoMy42MTYwMSwtMy43ODExNikiPiYjeGE7CQkJPHRpdGxlIGlkPSJ0aXRsZTcyODMwIj5wYXRoNzA4NDwvdGl0bGU+JiN4YTsJCQk8cGF0aCBpZD0icGF0aDcyODMyIiBpbmtzY2FwZTpjb25uZWN0b3ItY3VydmF0dXJlPSIwIiBzdHlsZT0iZmlsbDojRTNBODI0OyIgZD0iTTEyLjg4LDkuMDZjNy4xMiwwLDEyLjg5LDYuMDQsMTIuODksMTMuNDggICAgIFMyMCwzNi4wMSwxMi44OCwzNi4wMUM1Ljc3LDM2LjAxLDAsMjkuOTgsMCwyMi41NFM1Ljc3LDkuMDYsMTIuODgsOS4wNnoiLz4mI3hhOwkJPC9nPiYjeGE7CQk8ZyBpZD0ic2hhcGU0NzAzLTYiIHRyYW5zZm9ybT0idHJhbnNsYXRlKDQuOTA3OTYsLTUuMTMyMzEpIj4mI3hhOwkJCTx0aXRsZSBpZD0idGl0bGU3MjgzNSI+cGF0aDcwODY8L3RpdGxlPiYjeGE7CQkJPHBhdGggaWQ9InBhdGg3MjgzNyIgaW5rc2NhcGU6Y29ubmVjdG9yLWN1cnZhdHVyZT0iMCIgc3R5bGU9ImZpbGw6I0Y0Q0ExNDsiIGQ9Ik0xMS41OSwxMS43NmM2LjQsMCwxMS42LDUuNDMsMTEuNiwxMi4xMyAgICAgcy01LjIsMTIuMTItMTEuNiwxMi4xMlMwLDMwLjU5LDAsMjMuODlTNS4xOSwxMS43NiwxMS41OSwxMS43NnoiLz4mI3hhOwkJPC9nPiYjeGE7CQk8ZyBpZD0ic2hhcGU0NzA0LTgiIHRyYW5zZm9ybT0idHJhbnNsYXRlKDExLjE3MjQsLTcuMDgxKSI+JiN4YTsJCQk8dGl0bGUgaWQ9InRpdGxlNzI4NDAiPnBhdGg3MDg4PC90aXRsZT4mI3hhOwkJCTxwYXRoIGlkPSJwYXRoNzI4NDIiIGlua3NjYXBlOmNvbm5lY3Rvci1jdXJ2YXR1cmU9IjAiIHN0eWxlPSJmaWxsOiNGRkZGRkY7IiBkPSJNNC41NSwzMS4xOXYtNC43NiAgICAgYy0xLjQyLTAuNDItMi40NS0xLjA2LTMuMTEtMS45MmMtMC42Ni0wLjg3LTAuOTktMS45MS0wLjk5LTMuMTNjMC0xLjI1LDAuMzctMi4yOSwxLjEyLTMuMTRjMC43NC0wLjg0LDEuNzQtMS4zMywyLjk4LTEuNDYgICAgIHYtMS4xMWgxLjU4djEuMTFjMS4xNiwwLjE1LDIuMDgsMC41NiwyLjc3LDEuMjRjMC42OCwwLjY4LDEuMTIsMS41OSwxLjMxLDIuNzNsLTIuNzcsMC4zN2MtMC4xNy0wLjg5LTAuNi0xLjUtMS4zMS0xLjgydjQuNDQgICAgIGMxLjc1LDAuNDksMi45NCwxLjEzLDMuNTcsMS45MWMwLjY0LDAuNzksMC45NSwxLjc5LDAuOTUsMy4wMmMwLDEuMzctMC4zOSwyLjUzLTEuMTksMy40N3MtMS45MSwxLjUyLTMuMzMsMS43NXYyLjEySDQuNTV2LTIuMDkgICAgIGMtMS4yNS0wLjE2LTIuMjYtMC42NS0zLjA1LTEuNDZDMC43MiwzMS42NSwwLjIyLDMwLjUsMCwyOS4wMmwyLjgzLTAuMzVjMC4xMiwwLjYxLDAuMzQsMS4xMywwLjY1LDEuNTcgICAgIEMzLjgsMzAuNjgsNC4xNiwzMC45OSw0LjU1LDMxLjE5eiBNNC41NSwxOS4yNWMtMC40MywwLjE2LTAuNzYsMC40Mi0xLjAxLDAuNzljLTAuMjUsMC4zNi0wLjM3LDAuNzYtMC4zNywxLjIgICAgIGMwLDAuNCwwLjExLDAuNzgsMC4zMywxLjEyYzAuMjMsMC4zNCwwLjU4LDAuNjIsMS4wNSwwLjgzVjE5LjI1eiBNNi4xMywzMS4zOGMwLjU1LTAuMTMsMC45OS0wLjQsMS4zMy0wLjgyICAgICBjMC4zNS0wLjQyLDAuNTItMC45MSwwLjUyLTEuNDhjMC0wLjUxLTAuMTUtMC45NS0wLjQ0LTEuMzFjLTAuMjgtMC4zNy0wLjc1LTAuNjUtMS40MS0wLjg1VjMxLjM4eiIvPiYjeGE7CQk8L2c+JiN4YTsJPC9nPiYjeGE7PC9nPiYjeGE7PC9zdmc+;" parent="1" vertex="1">
          <mxGeometry x="770" y="407" width="33" height="35" as="geometry"/>
        </mxCell>
        <mxCell id="uhcvnhkE3gYi9Mrpb9Jq-28" style="edgeStyle=orthogonalEdgeStyle;rounded=0;orthogonalLoop=1;jettySize=auto;html=1;exitX=0.25;exitY=0;exitDx=0;exitDy=0;entryX=0.438;entryY=0.563;entryDx=0;entryDy=0;entryPerimeter=0;" parent="1" source="uhcvnhkE3gYi9Mrpb9Jq-16" target="45236fa5f4b8e91a-4" edge="1">
          <mxGeometry relative="1" as="geometry"/>
        </mxCell>
        <mxCell id="uhcvnhkE3gYi9Mrpb9Jq-16" value="" style="shape=image;verticalLabelPosition=bottom;labelBackgroundColor=#ffffff;verticalAlign=top;aspect=fixed;imageAspect=0;image=data:image/svg+xml,PHN2ZyB4bWxuczpjYz0iaHR0cDovL2NyZWF0aXZlY29tbW9ucy5vcmcvbnMjIiB4bWxuczpkYz0iaHR0cDovL3B1cmwub3JnL2RjL2VsZW1lbnRzLzEuMS8iIHhtbG5zOmlua3NjYXBlPSJodHRwOi8vd3d3Lmlua3NjYXBlLm9yZy9uYW1lc3BhY2VzL2lua3NjYXBlIiB4bWxuczpyZGY9Imh0dHA6Ly93d3cudzMub3JnLzE5OTkvMDIvMjItcmRmLXN5bnRheC1ucyMiIHhtbG5zOnNvZGlwb2RpPSJodHRwOi8vc29kaXBvZGkuc291cmNlZm9yZ2UubmV0L0RURC9zb2RpcG9kaS0wLmR0ZCIgeG1sbnM6c3ZnPSJodHRwOi8vd3d3LnczLm9yZy8yMDAwL3N2ZyIgeG1sbnM9Imh0dHA6Ly93d3cudzMub3JnLzIwMDAvc3ZnIiB4bWxuczp4bGluaz0iaHR0cDovL3d3dy53My5vcmcvMTk5OS94bGluayIgdmVyc2lvbj0iMS4xIiBpZD0ic3ZnMzMyMDAiIGlua3NjYXBlOnZlcnNpb249IjAuOTIuMyAoMjQwNTU0NiwgMjAxOC0wMy0xMSkiIHNvZGlwb2RpOmRvY25hbWU9ImN1c3RvbXNfYnVpbGRpbmcuc3ZnIiB4PSIwcHgiIHk9IjBweCIgdmlld0JveD0iMCAwIDcxLjI1IDYwLjI4IiBzdHlsZT0iZW5hYmxlLWJhY2tncm91bmQ6bmV3IDAgMCA3MS4yNSA2MC4yODsiIHhtbDpzcGFjZT0icHJlc2VydmUiPiYjeGE7PHNvZGlwb2RpOm5hbWVkdmlldyBib3JkZXJjb2xvcj0iIzY2NjY2NiIgYm9yZGVyb3BhY2l0eT0iMSIgZml0LW1hcmdpbi1ib3R0b209IjAiIGZpdC1tYXJnaW4tbGVmdD0iMCIgZml0LW1hcmdpbi1yaWdodD0iMCIgZml0LW1hcmdpbi10b3A9IjAiIGdyaWR0b2xlcmFuY2U9IjEwIiBndWlkZXRvbGVyYW5jZT0iMTAiIGlkPSJuYW1lZHZpZXczMzIwMiIgaW5rc2NhcGU6Y3VycmVudC1sYXllcj0ic3ZnMzMyMDAiIGlua3NjYXBlOmN4PSI0Ny40OTY4NDkiIGlua3NjYXBlOmN5PSI0MC4xODczNzciIGlua3NjYXBlOnBhZ2VvcGFjaXR5PSIwIiBpbmtzY2FwZTpwYWdlc2hhZG93PSIyIiBpbmtzY2FwZTp3aW5kb3ctaGVpZ2h0PSIxMDE3IiBpbmtzY2FwZTp3aW5kb3ctbWF4aW1pemVkPSIxIiBpbmtzY2FwZTp3aW5kb3ctd2lkdGg9IjE5MjAiIGlua3NjYXBlOndpbmRvdy14PSItOCIgaW5rc2NhcGU6d2luZG93LXk9Ii04IiBpbmtzY2FwZTp6b29tPSIxMC4zMDk1NzUiIG9iamVjdHRvbGVyYW5jZT0iMTAiIHBhZ2Vjb2xvcj0iI2ZmZmZmZiIgc2hvd2dyaWQ9ImZhbHNlIj4mI3hhOwk8L3NvZGlwb2RpOm5hbWVkdmlldz4mI3hhOzxnIGlkPSJnMzMxOTgiIHRyYW5zZm9ybT0idHJhbnNsYXRlKC0xLjM5NTgwMzgsLTEuMzk1NzcwMikiPiYjeGE7CTx0aXRsZSBpZD0idGl0bGUzMjk4NyI+UGFnZS0xPC90aXRsZT4mI3hhOwk8ZyBpZD0iZ3JvdXA3NTE1LTEiIHRyYW5zZm9ybT0idHJhbnNsYXRlKDEuMzk1NzMsLTEuMzk1NzMpIj4mI3hhOwkJPHRpdGxlIGlkPSJ0aXRsZTMyOTg5Ij5DdXN0b21zIEJ1aWxkaW5nPC90aXRsZT4mI3hhOwkJPGcgaWQ9InNoYXBlNzUxNi0yIiB0cmFuc2Zvcm09InRyYW5zbGF0ZSgzNS41MDQ1LC01Ni44MTQ3KSI+JiN4YTsJCQk8dGl0bGUgaWQ9InRpdGxlMzI5OTEiPlNoZWV0Ljc1MTY8L3RpdGxlPiYjeGE7CQkJPHJlY3QgaWQ9InJlY3QzMjk5MyIgeD0iMCIgeT0iNTkuNjEiIHN0eWxlPSJmaWxsOiNCQUQ4MEE7IiB3aWR0aD0iNS4zMSIgaGVpZ2h0PSIzLjQ3Ii8+JiN4YTsJCTwvZz4mI3hhOwkJPGcgaWQ9InNoYXBlNzUxNy00IiB0cmFuc2Zvcm09InRyYW5zbGF0ZSgzNS41MDQ1LC01Mi40ODE4KSI+JiN4YTsJCQk8dGl0bGUgaWQ9InRpdGxlMzI5OTYiPlNoZWV0Ljc1MTc8L3RpdGxlPiYjeGE7CQkJPHJlY3QgaWQ9InJlY3QzMjk5OCIgeD0iMCIgeT0iNTUuMjciIHN0eWxlPSJmaWxsOiM0MzU3NzA7IiB3aWR0aD0iMC42NSIgaGVpZ2h0PSI3LjgiLz4mI3hhOwkJPC9nPiYjeGE7CQk8ZyBpZD0ic2hhcGU3NTE4LTYiIHRyYW5zZm9ybT0idHJhbnNsYXRlKDUuNTI0MjQsLTIuNTg1NTgpIj4mI3hhOwkJCTx0aXRsZSBpZD0idGl0bGUzMzAwMSI+U2hlZXQuNzUxODwvdGl0bGU+JiN4YTsJCQkmI3hhOwkJCQk8cmVjdCBpZD0icmVjdDMzMDAzIiB4PSIwIiB5PSIyNC44NCIgc3R5bGU9ImZpbGw6I0YyRjJGMjtzdHJva2U6IzU1NkE4QTtzdHJva2Utd2lkdGg6MS41O3N0cm9rZS1taXRlcmxpbWl0OjM7IiB3aWR0aD0iNjAuMiIgaGVpZ2h0PSIzOC4yNCIvPiYjeGE7CQk8L2c+JiN4YTsJCTxnIGlkPSJzaGFwZTc1MTktOCIgdHJhbnNmb3JtPSJ0cmFuc2xhdGUoMy41MTc3NCwtNDAuODIwNikiPiYjeGE7CQkJPHRpdGxlIGlkPSJ0aXRsZTMzMDA2Ij5TaGVldC43NTE5PC90aXRsZT4mI3hhOwkJCTxyZWN0IGlkPSJyZWN0MzMwMDgiIHg9IjAiIHk9IjYwLjc4IiBzdHlsZT0iZmlsbDojNDM1NzcwOyIgd2lkdGg9IjY0LjIxIiBoZWlnaHQ9IjIuMjkiLz4mI3hhOwkJPC9nPiYjeGE7CQk8ZyBpZD0ic2hhcGU3NTIwLTEwIiB0cmFuc2Zvcm09InRyYW5zbGF0ZSg4LjA1NDc0LC02LjcxNTg4KSI+JiN4YTsJCQk8dGl0bGUgaWQ9InRpdGxlMzMwMTEiPlNoZWV0Ljc1MjA8L3RpdGxlPiYjeGE7CQkJJiN4YTsJCQkJPHJlY3QgaWQ9InJlY3QzMzAxMyIgeD0iMCIgeT0iMzEuNzciIHN0eWxlPSJmaWxsOiMyQkM3RjQ7c3Ryb2tlOiM1NTZBOEE7c3Ryb2tlLXdpZHRoOjAuNzU7c3Ryb2tlLW1pdGVybGltaXQ6MzsiIHdpZHRoPSI0Ljg3IiBoZWlnaHQ9IjMxLjMxIi8+JiN4YTsJCTwvZz4mI3hhOwkJPGcgaWQ9InNoYXBlNzUyMS0xMiIgdHJhbnNmb3JtPSJ0cmFuc2xhdGUoMTQuMzM3NCwtNi43MTU4OCkiPiYjeGE7CQkJPHRpdGxlIGlkPSJ0aXRsZTMzMDE2Ij5TaGVldC43NTIxPC90aXRsZT4mI3hhOwkJCSYjeGE7CQkJCTxyZWN0IGlkPSJyZWN0MzMwMTgiIHg9IjAiIHk9IjMxLjc3IiBzdHlsZT0iZmlsbDojMkJDN0Y0O3N0cm9rZTojNTU2QThBO3N0cm9rZS13aWR0aDowLjc1O3N0cm9rZS1taXRlcmxpbWl0OjM7IiB3aWR0aD0iNC44NyIgaGVpZ2h0PSIzMS4zMSIvPiYjeGE7CQk8L2c+JiN4YTsJCTxnIGlkPSJzaGFwZTc1MjItMTQiIHRyYW5zZm9ybT0idHJhbnNsYXRlKDIwLjYyMDEsLTYuNzE1ODgpIj4mI3hhOwkJCTx0aXRsZSBpZD0idGl0bGUzMzAyMSI+U2hlZXQuNzUyMjwvdGl0bGU+JiN4YTsJCQkmI3hhOwkJCQk8cmVjdCBpZD0icmVjdDMzMDIzIiB4PSIwIiB5PSIzMS43NyIgc3R5bGU9ImZpbGw6IzJCQzdGNDtzdHJva2U6IzU1NkE4QTtzdHJva2Utd2lkdGg6MC43NTtzdHJva2UtbWl0ZXJsaW1pdDozOyIgd2lkdGg9IjQuODciIGhlaWdodD0iMzEuMzEiLz4mI3hhOwkJPC9nPiYjeGE7CQk8ZyBpZD0ic2hhcGU3NTIzLTE2IiB0cmFuc2Zvcm09InRyYW5zbGF0ZSgzOS40NjgxLC0zMC4zMzAxKSI+JiN4YTsJCQk8dGl0bGUgaWQ9InRpdGxlMzMwMjYiPlNoZWV0Ljc1MjM8L3RpdGxlPiYjeGE7CQkJJiN4YTsJCQkJPHJlY3QgaWQ9InJlY3QzMzAyOCIgeD0iMCIgeT0iNTUuMzgiIHN0eWxlPSJmaWxsOiMyQkM3RjQ7c3Ryb2tlOiM1NTZBOEE7c3Ryb2tlLXdpZHRoOjAuNzU7c3Ryb2tlLW1pdGVybGltaXQ6MzsiIHdpZHRoPSI0Ljg3IiBoZWlnaHQ9IjcuNjkiLz4mI3hhOwkJPC9nPiYjeGE7CQk8ZyBpZD0ic2hhcGU3NTI0LTE4IiB0cmFuc2Zvcm09InRyYW5zbGF0ZSg0NS43NTA2LC02LjcxNTg4KSI+JiN4YTsJCQk8dGl0bGUgaWQ9InRpdGxlMzMwMzEiPlNoZWV0Ljc1MjQ8L3RpdGxlPiYjeGE7CQkJJiN4YTsJCQkJPHJlY3QgaWQ9InJlY3QzMzAzMyIgeD0iMCIgeT0iMzEuNzciIHN0eWxlPSJmaWxsOiMyQkM3RjQ7c3Ryb2tlOiM1NTZBOEE7c3Ryb2tlLXdpZHRoOjAuNzU7c3Ryb2tlLW1pdGVybGltaXQ6MzsiIHdpZHRoPSI0Ljg3IiBoZWlnaHQ9IjMxLjMxIi8+JiN4YTsJCTwvZz4mI3hhOwkJPGcgaWQ9InNoYXBlNzUyNS0yMCIgdHJhbnNmb3JtPSJ0cmFuc2xhdGUoMzMuMTg1NCwtMzAuMzMwMSkiPiYjeGE7CQkJPHRpdGxlIGlkPSJ0aXRsZTMzMDM2Ij5TaGVldC43NTI1PC90aXRsZT4mI3hhOwkJCSYjeGE7CQkJCTxyZWN0IGlkPSJyZWN0MzMwMzgiIHg9IjAiIHk9IjU1LjM4IiBzdHlsZT0iZmlsbDojMkJDN0Y0O3N0cm9rZTojNTU2QThBO3N0cm9rZS13aWR0aDowLjc1O3N0cm9rZS1taXRlcmxpbWl0OjM7IiB3aWR0aD0iNC44NyIgaGVpZ2h0PSI3LjY5Ii8+JiN4YTsJCTwvZz4mI3hhOwkJPGcgaWQ9InNoYXBlNzUyNi0yMiIgdHJhbnNmb3JtPSJ0cmFuc2xhdGUoMjYuOTAyNywtMzAuMzMwMSkiPiYjeGE7CQkJPHRpdGxlIGlkPSJ0aXRsZTMzMDQxIj5TaGVldC43NTI2PC90aXRsZT4mI3hhOwkJCSYjeGE7CQkJCTxyZWN0IGlkPSJyZWN0MzMwNDMiIHg9IjAiIHk9IjU1LjM4IiBzdHlsZT0iZmlsbDojMkJDN0Y0O3N0cm9rZTojNTU2QThBO3N0cm9rZS13aWR0aDowLjc1O3N0cm9rZS1taXRlcmxpbWl0OjM7IiB3aWR0aD0iNC44NyIgaGVpZ2h0PSI3LjY5Ii8+JiN4YTsJCTwvZz4mI3hhOwkJPGcgaWQ9InNoYXBlNzUyNy0yNCIgdHJhbnNmb3JtPSJ0cmFuc2xhdGUoMjYuOTAzMywtNS45MDI5OCkiPiYjeGE7CQkJPHRpdGxlIGlkPSJ0aXRsZTMzMDQ2Ij5TaGVldC43NTI3PC90aXRsZT4mI3hhOwkJCSYjeGE7CQkJCTxyZWN0IGlkPSJyZWN0MzMwNDgiIHg9IjAiIHk9IjQ1LjQ3IiBzdHlsZT0iZmlsbDojMkJDN0Y0O3N0cm9rZTojNTU2QThBO3N0cm9rZS13aWR0aDowLjc1O3N0cm9rZS1taXRlcmxpbWl0OjM7IiB3aWR0aD0iOC4wMiIgaGVpZ2h0PSIxNy42Ii8+JiN4YTsJCTwvZz4mI3hhOwkJPGcgaWQ9InNoYXBlNzUyOC0yNiIgdHJhbnNmb3JtPSJ0cmFuc2xhdGUoMzYuMzI3MywtNS45MDI5OCkiPiYjeGE7CQkJPHRpdGxlIGlkPSJ0aXRsZTMzMDUxIj5TaGVldC43NTI4PC90aXRsZT4mI3hhOwkJCSYjeGE7CQkJCTxyZWN0IGlkPSJyZWN0MzMwNTMiIHg9IjAiIHk9IjQ1LjQ3IiBzdHlsZT0iZmlsbDojMkJDN0Y0O3N0cm9rZTojNTU2QThBO3N0cm9rZS13aWR0aDowLjc1O3N0cm9rZS1taXRlcmxpbWl0OjM7IiB3aWR0aD0iOC4wMiIgaGVpZ2h0PSIxNy42Ii8+JiN4YTsJCTwvZz4mI3hhOwkJPGcgaWQ9InNoYXBlNzUyOS0yOCIgdHJhbnNmb3JtPSJ0cmFuc2xhdGUoNTIuMDMzMywtNi43MTU4OCkiPiYjeGE7CQkJPHRpdGxlIGlkPSJ0aXRsZTMzMDU2Ij5TaGVldC43NTI5PC90aXRsZT4mI3hhOwkJCSYjeGE7CQkJCTxyZWN0IGlkPSJyZWN0MzMwNTgiIHg9IjAiIHk9IjMxLjc3IiBzdHlsZT0iZmlsbDojMkJDN0Y0O3N0cm9rZTojNTU2QThBO3N0cm9rZS13aWR0aDowLjc1O3N0cm9rZS1taXRlcmxpbWl0OjM7IiB3aWR0aD0iNC44NyIgaGVpZ2h0PSIzMS4zMSIvPiYjeGE7CQk8L2c+JiN4YTsJCTxnIGlkPSJzaGFwZTc1MzAtMzAiIHRyYW5zZm9ybT0idHJhbnNsYXRlKDU4LjMxNjEsLTYuNzE1ODgpIj4mI3hhOwkJCTx0aXRsZSBpZD0idGl0bGUzMzA2MSI+U2hlZXQuNzUzMDwvdGl0bGU+JiN4YTsJCQkmI3hhOwkJCQk8cmVjdCBpZD0icmVjdDMzMDYzIiB4PSIwIiB5PSIzMS43NyIgc3R5bGU9ImZpbGw6IzJCQzdGNDtzdHJva2U6IzU1NkE4QTtzdHJva2Utd2lkdGg6MC43NTtzdHJva2UtbWl0ZXJsaW1pdDozOyIgd2lkdGg9IjQuODciIGhlaWdodD0iMzEuMzEiLz4mI3hhOwkJPC9nPiYjeGE7CQk8ZyBpZD0ic2hhcGU3NTMxLTMyIiB0cmFuc2Zvcm09InRyYW5zbGF0ZSgyLjk5NTA0LC0zLjE0MDk1KSI+JiN4YTsJCQk8dGl0bGUgaWQ9InRpdGxlMzMwNjYiPlNoZWV0Ljc1MzE8L3RpdGxlPiYjeGE7CQkJPHJlY3QgaWQ9InJlY3QzMzA2OCIgeD0iMCIgeT0iNjEuNSIgc3R5bGU9ImZpbGw6IzQzNTc3MDsiIHdpZHRoPSI2NS4yNiIgaGVpZ2h0PSIxLjU3Ii8+JiN4YTsJCTwvZz4mI3hhOwkJPGcgaWQ9InNoYXBlNzUzMi0zNCIgdHJhbnNmb3JtPSJ0cmFuc2xhdGUoMC45ODcyNDMsLTEuNTcwMzkpIj4mI3hhOwkJCTx0aXRsZSBpZD0idGl0bGUzMzA3MSI+U2hlZXQuNzUzMjwvdGl0bGU+JiN4YTsJCQk8cmVjdCBpZD0icmVjdDMzMDczIiB4PSIwIiB5PSI2MS41IiBzdHlsZT0iZmlsbDojQjZCNkI2OyIgd2lkdGg9IjY5LjI3IiBoZWlnaHQ9IjEuNTciLz4mI3hhOwkJPC9nPiYjeGE7CQk8ZyBpZD0ic2hhcGU3NTMzLTM2Ij4mI3hhOwkJCTx0aXRsZSBpZD0idGl0bGUzMzA3NiI+U2hlZXQuNzUzMzwvdGl0bGU+JiN4YTsJCQk8cmVjdCBpZD0icmVjdDMzMDc4IiB4PSIwIiB5PSI2MS41IiBzdHlsZT0iZmlsbDojNDM1NzcwOyIgd2lkdGg9IjcxLjI1IiBoZWlnaHQ9IjEuNTciLz4mI3hhOwkJPC9nPiYjeGE7CQk8ZyBpZD0ic2hhcGU3NTM0LTM4IiB0cmFuc2Zvcm09InRyYW5zbGF0ZSg4LjI4NDQ5LC03LjIyOTk4KSI+JiN4YTsJCQk8dGl0bGUgaWQ9InRpdGxlMzMwODEiPlNoZWV0Ljc1MzQ8L3RpdGxlPiYjeGE7CQkJPHBhdGggaWQ9InBhdGgzMzA4MyIgaW5rc2NhcGU6Y29ubmVjdG9yLWN1cnZhdHVyZT0iMCIgc3R5bGU9ImZpbGw6I0Q0RTJGNTsiIGQ9Ik00LjIsMzMuODN2MjkuMjRIMEMwLDYzLjA3LDQuMiw2MS41Myw0LjIsMzMuODMgICAgIHoiLz4mI3hhOwkJPC9nPiYjeGE7CQk8ZyBpZD0ic2hhcGU3NTM1LTQwIiB0cmFuc2Zvcm09InRyYW5zbGF0ZSgxNC41ODk4LC03LjIyOTk4KSI+JiN4YTsJCQk8dGl0bGUgaWQ9InRpdGxlMzMwODYiPlNoZWV0Ljc1MzU8L3RpdGxlPiYjeGE7CQkJPHBhdGggaWQ9InBhdGgzMzA4OCIgaW5rc2NhcGU6Y29ubmVjdG9yLWN1cnZhdHVyZT0iMCIgc3R5bGU9ImZpbGw6I0Q0RTJGNTsiIGQ9Ik00LjIsMzMuODN2MjkuMjRIMEMwLDYzLjA3LDQuMiw2MS41Myw0LjIsMzMuODMgICAgIHoiLz4mI3hhOwkJPC9nPiYjeGE7CQk8ZyBpZD0ic2hhcGU3NTM2LTQyIiB0cmFuc2Zvcm09InRyYW5zbGF0ZSgyMC44OTUxLC03LjIyOTk4KSI+JiN4YTsJCQk8dGl0bGUgaWQ9InRpdGxlMzMwOTEiPlNoZWV0Ljc1MzY8L3RpdGxlPiYjeGE7CQkJPHBhdGggaWQ9InBhdGgzMzA5MyIgaW5rc2NhcGU6Y29ubmVjdG9yLWN1cnZhdHVyZT0iMCIgc3R5bGU9ImZpbGw6I0Q0RTJGNTsiIGQ9Ik00LjIsMzMuODN2MjkuMjRIMEMwLDYzLjA3LDQuMiw2MS41Myw0LjIsMzMuODMgICAgIHoiLz4mI3hhOwkJPC9nPiYjeGE7CQk8ZyBpZD0ic2hhcGU3NTM3LTQ0IiB0cmFuc2Zvcm09InRyYW5zbGF0ZSg0NS45ODA0LC03LjIyOTk4KSI+JiN4YTsJCQk8dGl0bGUgaWQ9InRpdGxlMzMwOTYiPlNoZWV0Ljc1Mzc8L3RpdGxlPiYjeGE7CQkJPHBhdGggaWQ9InBhdGgzMzA5OCIgaW5rc2NhcGU6Y29ubmVjdG9yLWN1cnZhdHVyZT0iMCIgc3R5bGU9ImZpbGw6I0Q0RTJGNTsiIGQ9Ik00LjIsMzMuODN2MjkuMjRIMEMwLDYzLjA3LDQuMiw2MS41Myw0LjIsMzMuODMgICAgIHoiLz4mI3hhOwkJPC9nPiYjeGE7CQk8ZyBpZD0ic2hhcGU3NTM4LTQ2IiB0cmFuc2Zvcm09InRyYW5zbGF0ZSg1Mi4yODU3LC03LjIyOTk4KSI+JiN4YTsJCQk8dGl0bGUgaWQ9InRpdGxlMzMxMDEiPlNoZWV0Ljc1Mzg8L3RpdGxlPiYjeGE7CQkJPHBhdGggaWQ9InBhdGgzMzEwMyIgaW5rc2NhcGU6Y29ubmVjdG9yLWN1cnZhdHVyZT0iMCIgc3R5bGU9ImZpbGw6I0Q0RTJGNTsiIGQ9Ik00LjIsMzMuODN2MjkuMjRIMEMwLDYzLjA3LDQuMiw2MS41Myw0LjIsMzMuODMgICAgIHoiLz4mI3hhOwkJPC9nPiYjeGE7CQk8ZyBpZD0ic2hhcGU3NTM5LTQ4IiB0cmFuc2Zvcm09InRyYW5zbGF0ZSg1OC41OTEsLTcuMjI5OTgpIj4mI3hhOwkJCTx0aXRsZSBpZD0idGl0bGUzMzEwNiI+U2hlZXQuNzUzOTwvdGl0bGU+JiN4YTsJCQk8cGF0aCBpZD0icGF0aDMzMTA4IiBpbmtzY2FwZTpjb25uZWN0b3ItY3VydmF0dXJlPSIwIiBzdHlsZT0iZmlsbDojRDRFMkY1OyIgZD0iTTQuMiwzMy44M3YyOS4yNEgwQzAsNjMuMDcsNC4yLDYxLjUzLDQuMiwzMy44MyAgICAgeiIvPiYjeGE7CQk8L2c+JiN4YTsJCTxnIGlkPSJzaGFwZTc1NDAtNTAiIHRyYW5zZm9ybT0idHJhbnNsYXRlKDQwLjA1NDIsLTMwLjc2MDMpIj4mI3hhOwkJCTx0aXRsZSBpZD0idGl0bGUzMzExMSI+U2hlZXQuNzU0MDwvdGl0bGU+JiN4YTsJCQk8cGF0aCBpZD0icGF0aDMzMTEzIiBpbmtzY2FwZTpjb25uZWN0b3ItY3VydmF0dXJlPSIwIiBzdHlsZT0iZmlsbDojRDRFMkY1OyIgZD0iTTMuODgsNTYuMjh2Ni43OUgwICAgICBDMCw2My4wNywzLjQxLDYxLjk4LDMuODgsNTYuMjh6Ii8+JiN4YTsJCTwvZz4mI3hhOwkJPGcgaWQ9InNoYXBlNzU0MS01MiIgdHJhbnNmb3JtPSJ0cmFuc2xhdGUoMzMuNjgwMywtMzAuNzYwMykiPiYjeGE7CQkJPHRpdGxlIGlkPSJ0aXRsZTMzMTE2Ij5TaGVldC43NTQxPC90aXRsZT4mI3hhOwkJCTxwYXRoIGlkPSJwYXRoMzMxMTgiIGlua3NjYXBlOmNvbm5lY3Rvci1jdXJ2YXR1cmU9IjAiIHN0eWxlPSJmaWxsOiNENEUyRjU7IiBkPSJNMy44OCw1Ni4yOHY2Ljc5SDAgICAgIEMwLDYzLjA3LDMuNDEsNjEuOTgsMy44OCw1Ni4yOHoiLz4mI3hhOwkJPC9nPiYjeGE7CQk8ZyBpZD0ic2hhcGU3NTQyLTU0IiB0cmFuc2Zvcm09InRyYW5zbGF0ZSgyNy4zOTc2LC0zMC43NjAzKSI+JiN4YTsJCQk8dGl0bGUgaWQ9InRpdGxlMzMxMjEiPlNoZWV0Ljc1NDI8L3RpdGxlPiYjeGE7CQkJPHBhdGggaWQ9InBhdGgzMzEyMyIgaW5rc2NhcGU6Y29ubmVjdG9yLWN1cnZhdHVyZT0iMCIgc3R5bGU9ImZpbGw6I0Q0RTJGNTsiIGQ9Ik0zLjg4LDU2LjI4djYuNzlIMCAgICAgQzAsNjMuMDcsMy40MSw2MS45OCwzLjg4LDU2LjI4eiIvPiYjeGE7CQk8L2c+JiN4YTsJCTxnIGlkPSJzaGFwZTc1NDMtNTYiIHRyYW5zZm9ybT0idHJhbnNsYXRlKDI3LjY0MTMsLTYuMzg3OTkpIj4mI3hhOwkJCTx0aXRsZSBpZD0idGl0bGUzMzEyNiI+U2hlZXQuNzU0MzwvdGl0bGU+JiN4YTsJCQk8cGF0aCBpZD0icGF0aDMzMTI4IiBpbmtzY2FwZTpjb25uZWN0b3ItY3VydmF0dXJlPSIwIiBzdHlsZT0iZmlsbDojRDRFMkY1OyIgZD0iTTYuNzMsNTEuMzF2MTEuNzZIMCAgICAgQzAsNjMuMDcsNS45LDYxLjE4LDYuNzMsNTEuMzF6Ii8+JiN4YTsJCTwvZz4mI3hhOwkJPGcgaWQ9InNoYXBlNzU0NC01OCIgdHJhbnNmb3JtPSJ0cmFuc2xhdGUoMzcuMDg1NSwtNi4zODc5OSkiPiYjeGE7CQkJPHRpdGxlIGlkPSJ0aXRsZTMzMTMxIj5TaGVldC43NTQ0PC90aXRsZT4mI3hhOwkJCTxwYXRoIGlkPSJwYXRoMzMxMzMiIGlua3NjYXBlOmNvbm5lY3Rvci1jdXJ2YXR1cmU9IjAiIHN0eWxlPSJmaWxsOiNENEUyRjU7IiBkPSJNNi43Myw1MS4zMXYxMS43NkgwICAgICBDMCw2My4wNyw1LjksNjEuMTgsNi43Myw1MS4zMXoiLz4mI3hhOwkJPC9nPiYjeGE7CQk8ZyBpZD0ic2hhcGU3NTQ1LTYwIiB0cmFuc2Zvcm09InRyYW5zbGF0ZSgyNi45MDI3LC0yNC44MDU3KSI+JiN4YTsJCQk8dGl0bGUgaWQ9InRpdGxlMzMxMzYiPlNoZWV0Ljc1NDU8L3RpdGxlPiYjeGE7CQkJPHJlY3QgaWQ9InJlY3QzMzEzOCIgeD0iMCIgeT0iNTguODUiIHN0eWxlPSJmaWxsOiNGRkZGRkY7IiB3aWR0aD0iMTcuNDQiIGhlaWdodD0iNC4yMyIvPiYjeGE7CQk8L2c+JiN4YTsJCTxnIGlkPSJncm91cDc1NDYtNjIiIHRyYW5zZm9ybT0idHJhbnNsYXRlKDI5LjEyODQsLTI2LjAyOSkiPiYjeGE7CQkJPHRpdGxlIGlkPSJ0aXRsZTMzMTQxIj5TaGVldC43NTQ2PC90aXRsZT4mI3hhOwkJCTxnIGlkPSJzaGFwZTc1NDctNjMiIHRyYW5zZm9ybT0idHJhbnNsYXRlKDAsLTEuNjI0ODJlLTQpIj4mI3hhOwkJCQk8dGl0bGUgaWQ9InRpdGxlMzMxNDMiPlNoZWV0Ljc1NDc8L3RpdGxlPiYjeGE7CQkJCTxwYXRoIGlkPSJwYXRoMzMxNDUiIGlua3NjYXBlOmNvbm5lY3Rvci1jdXJ2YXR1cmU9IjAiIHN0eWxlPSJmaWxsOiM0MzU3NzA7IiBkPSJNMS42MSw2MS44OWwtMC4xNywwLjAyICAgICAgYy0wLjAzLTAuMTMtMC4wOS0wLjIzLTAuMTctMC4zMWMtMC4wOS0wLjA4LTAuMi0wLjEyLTAuMzQtMC4xMmMtMC4xLDAtMC4xOCwwLjAyLTAuMjYsMC4wNWMtMC4wNywwLjA0LTAuMTMsMC4wOS0wLjE3LDAuMTUgICAgICBjLTAuMDUsMC4wNi0wLjA4LDAuMTQtMC4xLDAuMjNjLTAuMDIsMC4wOC0wLjAzLDAuMTgtMC4wMywwLjI4YzAsMC4xMiwwLjAxLDAuMjIsMC4wNCwwLjNjMC4wMiwwLjA5LDAuMDYsMC4xNiwwLjExLDAuMjEgICAgICBjMC4wNSwwLjA2LDAuMSwwLjEsMC4xNywwLjEzYzAuMDcsMC4wMiwwLjE0LDAuMDQsMC4yMiwwLjA0YzAuMTYsMCwwLjI5LTAuMDQsMC4zOC0wLjExYzAuMDktMC4wOCwwLjE2LTAuMTgsMC4yLTAuMzIgICAgICBsMC4xNSwwLjA2Yy0wLjAyLDAuMDctMC4wNSwwLjE0LTAuMDksMC4yMWMtMC4wMywwLjA3LTAuMDgsMC4xMy0wLjE0LDAuMThjLTAuMDYsMC4wNi0wLjE0LDAuMS0wLjIyLDAuMTMgICAgICBDMS4xLDYzLjA2LDEsNjMuMDcsMC44OCw2My4wN3MtMC4yMy0wLjAyLTAuMzQtMC4wNWMtMC4xMS0wLjA0LTAuMi0wLjA5LTAuMjgtMC4xNnMtMC4xNS0wLjE2LTAuMTktMC4yNyAgICAgIEMwLjAyLDYyLjQ4LDAsNjIuMzUsMCw2Mi4yYzAtMC4xNSwwLjAyLTAuMjksMC4wNy0wLjRjMC4wNC0wLjEyLDAuMS0wLjIxLDAuMTgtMC4yOGMwLjA4LTAuMDgsMC4xNy0wLjEzLDAuMjgtMC4xNyAgICAgIGMwLjEtMC4wNCwwLjIyLTAuMDYsMC4zNC0wLjA2czAuMjMsMC4wMiwwLjMyLDAuMDZjMC4wOCwwLjA0LDAuMTUsMC4wOCwwLjE5LDAuMTNsMC4wNi0wLjE1aDAuMTdWNjEuODl6Ii8+JiN4YTsJCQk8L2c+JiN4YTsJCQk8ZyBpZD0ic2hhcGU3NTQ4LTY1IiB0cmFuc2Zvcm09InRyYW5zbGF0ZSgxLjc4OTU4KSI+JiN4YTsJCQkJPHRpdGxlIGlkPSJ0aXRsZTMzMTQ4Ij5TaGVldC43NTQ4PC90aXRsZT4mI3hhOwkJCQk8cGF0aCBpZD0icGF0aDMzMTUwIiBpbmtzY2FwZTpjb25uZWN0b3ItY3VydmF0dXJlPSIwIiBzdHlsZT0iZmlsbDojNDM1NzcwOyIgZD0iTTEuODMsNjEuNDdjLTAuMTQsMC0wLjIxLDAuMDQtMC4yMSwwLjExdjAuNzYgICAgICBjMCwwLjEyLTAuMDEsMC4yMi0wLjAzLDAuMzFjLTAuMDMsMC4wOS0wLjA3LDAuMTctMC4xMiwwLjIzYy0wLjA2LDAuMDYtMC4xMywwLjExLTAuMjIsMC4xNGMtMC4wOSwwLjA0LTAuMiwwLjA1LTAuMzIsMC4wNSAgICAgIGMtMC4xMywwLTAuMjQtMC4wMS0wLjMzLTAuMDVjLTAuMDktMC4wMy0wLjE3LTAuMDgtMC4yMy0wLjE0Yy0wLjA2LTAuMDYtMC4xLTAuMTQtMC4xMy0wLjIzYy0wLjAyLTAuMDktMC4wNC0wLjE5LTAuMDQtMC4zMSAgICAgIHYtMC43NmMwLTAuMDctMC4wNi0wLjExLTAuMi0wLjExdi0wLjEzaDAuOHYwLjEzYy0wLjA4LDAtMC4xNSwwLjAxLTAuMTksMC4wM2MtMC4wNCwwLjAxLTAuMDYsMC4wNC0wLjA2LDAuMDh2MC43NiAgICAgIGMwLDAuMDksMC4wMSwwLjE3LDAuMDMsMC4yNGMwLjAxLDAuMDcsMC4wMywwLjEyLDAuMDcsMC4xN2MwLjAzLDAuMDQsMC4wNywwLjA3LDAuMTMsMC4wOWMwLjA1LDAuMDIsMC4xMiwwLjA0LDAuMjEsMC4wNCAgICAgIGMwLjA4LDAsMC4xNS0wLjAyLDAuMjEtMC4wNHMwLjExLTAuMDUsMC4xNC0wLjA5YzAuMDQtMC4wNSwwLjA2LTAuMSwwLjA4LTAuMTdjMC4wMS0wLjA3LDAuMDItMC4xNSwwLjAyLTAuMjR2LTAuNzYgICAgICBjMC0wLjA0LTAuMDItMC4wNy0wLjA2LTAuMDhjLTAuMDQtMC4wMi0wLjExLTAuMDMtMC4xOS0wLjAzdi0wLjEzaDAuNjRWNjEuNDd6Ii8+JiN4YTsJCQk8L2c+JiN4YTsJCQk8ZyBpZD0ic2hhcGU3NTQ5LTY3IiB0cmFuc2Zvcm09InRyYW5zbGF0ZSgzLjc4Nzc5KSI+JiN4YTsJCQkJPHRpdGxlIGlkPSJ0aXRsZTMzMTUzIj5TaGVldC43NTQ5PC90aXRsZT4mI3hhOwkJCQk8cGF0aCBpZD0icGF0aDMzMTU1IiBpbmtzY2FwZTpjb25uZWN0b3ItY3VydmF0dXJlPSIwIiBzdHlsZT0iZmlsbDojNDM1NzcwOyIgZD0iTTEuMzcsNjEuOTNsLTAuMTUsMC4wMiAgICAgIGMtMC4wMS0wLjA4LTAuMDMtMC4xNS0wLjA2LTAuMjFjLTAuMDQtMC4wNS0wLjA4LTAuMS0wLjEzLTAuMTRjLTAuMDUtMC4wNC0wLjEtMC4wNy0wLjE3LTAuMDljLTAuMDYtMC4wMS0wLjEzLTAuMDItMC4yLTAuMDIgICAgICBjLTAuMTIsMC0wLjIxLDAuMDItMC4yOCwwLjA1Yy0wLjA3LDAuMDQtMC4xLDAuMS0wLjEsMC4xOWMwLDAuMDUsMC4wMSwwLjA5LDAuMDUsMC4xMmMwLjAzLDAuMDMsMC4wOCwwLjA2LDAuMTMsMC4wOCAgICAgIGMwLjA2LDAuMDEsMC4xMiwwLjAzLDAuMTksMC4wNGMwLjA3LDAuMDEsMC4xNCwwLjAzLDAuMjIsMC4wNGMwLjA3LDAuMDIsMC4xNCwwLjA0LDAuMjEsMC4wNnMwLjE0LDAuMDUsMC4xOSwwLjA5ICAgICAgYzAuMDYsMC4wNCwwLjEsMC4wOSwwLjEzLDAuMTVjMC4wNCwwLjA2LDAuMDYsMC4xMywwLjA2LDAuMjNjMCwwLjA5LTAuMDIsMC4xNy0wLjA1LDAuMjNjLTAuMDMsMC4wNy0wLjA4LDAuMTMtMC4xNCwwLjE3ICAgICAgYy0wLjA1LDAuMDUtMC4xMiwwLjA4LTAuMiwwLjFjLTAuMDksMC4wMi0wLjE4LDAuMDMtMC4yNywwLjAzYy0wLjExLDAtMC4xOS0wLjAxLTAuMjctMC4wM2MtMC4wNy0wLjAyLTAuMTQtMC4wNS0wLjItMC4wOSAgICAgIGMtMC4wMi0wLjAyLTAuMDUtMC4wMy0wLjA3LTAuMDNjLTAuMDEsMC0wLjAzLDAuMDEtMC4wNSwwLjAzQzAuMTgsNjIuOTgsMC4xNyw2MywwLjE1LDYzLjA0SDB2LTAuNjNsMC4xNS0wLjAyICAgICAgYzAuMDEsMC4wOCwwLjAzLDAuMTQsMC4wNiwwLjJzMC4wNywwLjExLDAuMTMsMC4xNmMwLjA1LDAuMDQsMC4xMSwwLjA3LDAuMTgsMC4wOWMwLjA4LDAuMDMsMC4xNiwwLjA0LDAuMjUsMC4wNCAgICAgIGMwLjEzLDAsMC4yMy0wLjAzLDAuMy0wLjA4YzAuMDYtMC4wNSwwLjEtMC4xMywwLjEtMC4yNGMwLTAuMDMtMC4wMS0wLjA2LTAuMDMtMC4wOWMtMC4wMi0wLjAyLTAuMDUtMC4wNC0wLjA5LTAuMDYgICAgICBjLTAuMDQtMC4wMS0wLjA4LTAuMDMtMC4xMy0wLjA0Yy0wLjA0LTAuMDEtMC4wOS0wLjAyLTAuMTUtMC4wM2MtMC4wNSwwLTAuMTEtMC4wMS0wLjE2LTAuMDJjLTAuMDUtMC4wMS0wLjExLTAuMDItMC4xNi0wLjA0ICAgICAgYy0wLjA2LTAuMDItMC4xMy0wLjA0LTAuMTgtMC4wNmMtMC4wNi0wLjAzLTAuMS0wLjA2LTAuMTQtMC4xYy0wLjA0LTAuMDQtMC4wNy0wLjA5LTAuMDktMC4xNWMtMC4wMi0wLjA1LTAuMDMtMC4xMi0wLjAzLTAuMiAgICAgIGMwLTAuMDYsMC4wMS0wLjEyLDAuMDMtMC4xN2MwLjAyLTAuMDYsMC4wNS0wLjExLDAuMS0wLjE1YzAuMDUtMC4wNSwwLjExLTAuMDgsMC4xOC0wLjExQzAuNCw2MS4zMSwwLjQ5LDYxLjMsMC42LDYxLjMgICAgICBjMC4xLDAsMC4xOSwwLjAxLDAuMjYsMC4wM3MwLjEzLDAuMDQsMC4xOCwwLjA3YzAuMDQsMC4wMiwwLjA3LDAuMDMsMC4wOSwwLjAzczAuMDQtMC4wMSwwLjA2LTAuMDNzMC4wNC0wLjA0LDAuMDYtMC4wN2gwLjEyICAgICAgTDEuMzcsNjEuOTN6Ii8+JiN4YTsJCQk8L2c+JiN4YTsJCQk8ZyBpZD0ic2hhcGU3NTUwLTY5IiB0cmFuc2Zvcm09InRyYW5zbGF0ZSg1LjM2NjYzLC0wLjAzNjcyMSkiPiYjeGE7CQkJCTx0aXRsZSBpZD0idGl0bGUzMzE1OCI+U2hlZXQuNzU1MDwvdGl0bGU+JiN4YTsJCQkJPHBhdGggaWQ9InBhdGgzMzE2MCIgaW5rc2NhcGU6Y29ubmVjdG9yLWN1cnZhdHVyZT0iMCIgc3R5bGU9ImZpbGw6IzQzNTc3MDsiIGQ9Ik0xLjcyLDYyLjA3bC0wLjE1LDAuMDEgICAgICBjMC0wLjEtMC4wMS0wLjE5LTAuMDMtMC4yNlMxLjUsNjEuNywxLjQ3LDYxLjY2Yy0wLjAyLTAuMDQtMC4wNi0wLjA3LTAuMDktMC4wOWMtMC4wNC0wLjAxLTAuMDktMC4wMi0wLjE0LTAuMDJIMS4wM3YxLjI5ICAgICAgYzAsMC4wNywwLjA3LDAuMSwwLjIxLDAuMXYwLjEzSDAuNDh2LTAuMTNjMC4xMywwLDAuMi0wLjAzLDAuMi0wLjF2LTEuMjlIMC40N2MtMC4wNSwwLTAuMDksMC4wMS0wLjEzLDAuMDIgICAgICBjLTAuMDQsMC4wMi0wLjA3LDAuMDUtMC4xLDAuMDljLTAuMDIsMC4wNC0wLjA1LDAuMDktMC4wNiwwLjE2Yy0wLjAyLDAuMDctMC4wMywwLjE2LTAuMDQsMC4yNkwwLDYyLjA3di0wLjdoMS43MlY2Mi4wN3oiLz4mI3hhOwkJCTwvZz4mI3hhOwkJCTxnIGlkPSJzaGFwZTc1NTEtNzEiIHRyYW5zZm9ybT0idHJhbnNsYXRlKDcuMjI5ODEpIj4mI3hhOwkJCQk8dGl0bGUgaWQ9InRpdGxlMzMxNjMiPlNoZWV0Ljc1NTE8L3RpdGxlPiYjeGE7CQkJCTxwYXRoIGlkPSJwYXRoMzMxNjUiIGlua3NjYXBlOmNvbm5lY3Rvci1jdXJ2YXR1cmU9IjAiIHN0eWxlPSJmaWxsOiM0MzU3NzA7IiBkPSJNMC44OCw2MS4zYzAuMTMsMCwwLjI0LDAuMDEsMC4zNCwwLjA0ICAgICAgYzAuMTEsMC4wNCwwLjIsMC4wOSwwLjI4LDAuMTVjMC4wNywwLjA3LDAuMTMsMC4xNiwwLjE3LDAuMjhjMC4wNSwwLjExLDAuMDcsMC4yNSwwLjA3LDAuNDFjMCwwLjE0LTAuMDIsMC4yNi0wLjA2LDAuMzcgICAgICBjLTAuMDMsMC4xMS0wLjA5LDAuMi0wLjE2LDAuMjhjLTAuMDgsMC4wOC0wLjE3LDAuMTQtMC4yOCwwLjE4QzEuMTMsNjMuMDUsMSw2My4wNywwLjg1LDYzLjA3Yy0wLjEyLDAtMC4yMy0wLjAxLTAuMzQtMC4wNCAgICAgIGMtMC4xLTAuMDMtMC4xOS0wLjA4LTAuMjctMC4xNWMtMC4wNy0wLjA2LTAuMTMtMC4xNS0wLjE3LTAuMjZDMC4wMiw2Mi41MSwwLDYyLjM4LDAsNjIuMjJjMC0wLjE0LDAuMDItMC4yNywwLjA1LTAuMzggICAgICBjMC4wMy0wLjEyLDAuMDktMC4yMSwwLjE2LTAuMjljMC4wNy0wLjA4LDAuMTYtMC4xNCwwLjI3LTAuMTlDMC42LDYxLjMyLDAuNzMsNjEuMywwLjg4LDYxLjN6IE0wLjksNjEuNDkgICAgICBjLTAuMSwwLTAuMTgsMC4wMS0wLjI1LDAuMDRjLTAuMDcsMC4wMy0wLjEyLDAuMDctMC4xNywwLjEyYy0wLjA0LDAuMDYtMC4wNywwLjEyLTAuMDksMC4ycy0wLjAzLDAuMTctMC4wMywwLjI2ICAgICAgYzAsMC4xNiwwLjAxLDAuMjksMC4wMywwLjM4YzAuMDIsMC4xLDAuMDYsMC4xOCwwLjEsMC4yNGMwLjA0LDAuMDUsMC4wOSwwLjA5LDAuMTUsMC4xMmMwLjA3LDAuMDIsMC4xMywwLjAzLDAuMjEsMC4wMyAgICAgIGMwLjEsMCwwLjE5LTAuMDEsMC4yNS0wLjA0YzAuMDctMC4wMywwLjEzLTAuMDgsMC4xNy0wLjE0YzAuMDQtMC4wNSwwLjA3LTAuMTIsMC4wOS0wLjIxYzAuMDItMC4wOCwwLjAzLTAuMTgsMC4wMy0wLjI5ICAgICAgYzAtMC4xNC0wLjAyLTAuMjYtMC4wNC0wLjM1cy0wLjA2LTAuMTctMC4xLTAuMjJzLTAuMDktMC4wOS0wLjE1LTAuMTFDMS4wNCw2MS41LDAuOTcsNjEuNDksMC45LDYxLjQ5eiIvPiYjeGE7CQkJPC9nPiYjeGE7CQkJPGcgaWQ9InNoYXBlNzU1Mi03MyIgdHJhbnNmb3JtPSJ0cmFuc2xhdGUoOS4xMTU3NSwtMC4wMzY3MjEpIj4mI3hhOwkJCQk8dGl0bGUgaWQ9InRpdGxlMzMxNjgiPlNoZWV0Ljc1NTI8L3RpdGxlPiYjeGE7CQkJCTxwYXRoIGlkPSJwYXRoMzMxNzAiIGlua3NjYXBlOmNvbm5lY3Rvci1jdXJ2YXR1cmU9IjAiIHN0eWxlPSJmaWxsOiM0MzU3NzA7IiBkPSJNMi4yNCw2MS41Yy0wLjEzLDAtMC4yLDAuMDQtMC4yLDAuMTF2MS4yMyAgICAgIGMwLDAuMDcsMC4wNywwLjEsMC4yLDAuMXYwLjEzSDEuNDl2LTAuMTNjMC4xNCwwLDAuMjEtMC4wMywwLjIxLTAuMXYtMS4ybC0wLjUxLDEuNDNIMC45bC0wLjUxLTEuNDN2MS4yICAgICAgYzAsMC4wNywwLjA3LDAuMSwwLjIxLDAuMXYwLjEzSDB2LTAuMTNjMC4xNCwwLDAuMi0wLjAzLDAuMi0wLjF2LTEuMjNjMC0wLjA3LTAuMDYtMC4xMS0wLjItMC4xMXYtMC4xM2gwLjY4bDAuNDYsMS4zNCAgICAgIGwwLjQ1LTEuMzRoMC42NUwyLjI0LDYxLjV6Ii8+JiN4YTsJCQk8L2c+JiN4YTsJCQk8ZyBpZD0ic2hhcGU3NTUzLTc1IiB0cmFuc2Zvcm09InRyYW5zbGF0ZSgxMS41MzMzKSI+JiN4YTsJCQkJPHRpdGxlIGlkPSJ0aXRsZTMzMTczIj5TaGVldC43NTUzPC90aXRsZT4mI3hhOwkJCQk8cGF0aCBpZD0icGF0aDMzMTc1IiBpbmtzY2FwZTpjb25uZWN0b3ItY3VydmF0dXJlPSIwIiBzdHlsZT0iZmlsbDojNDM1NzcwOyIgZD0iTTEuMzcsNjEuOTNsLTAuMTUsMC4wMiAgICAgIGMtMC4wMS0wLjA4LTAuMDMtMC4xNS0wLjA2LTAuMjFjLTAuMDQtMC4wNS0wLjA4LTAuMS0wLjEzLTAuMTRjLTAuMDUtMC4wNC0wLjEtMC4wNy0wLjE3LTAuMDljLTAuMDYtMC4wMS0wLjEzLTAuMDItMC4yLTAuMDIgICAgICBjLTAuMTIsMC0wLjIxLDAuMDItMC4yOCwwLjA1Yy0wLjA3LDAuMDQtMC4xLDAuMS0wLjEsMC4xOWMwLDAuMDUsMC4wMSwwLjA5LDAuMDUsMC4xMmMwLjAzLDAuMDMsMC4wOCwwLjA2LDAuMTMsMC4wOCAgICAgIGMwLjA2LDAuMDEsMC4xMiwwLjAzLDAuMTksMC4wNGMwLjA3LDAuMDEsMC4xNCwwLjAzLDAuMjIsMC4wNGMwLjA3LDAuMDIsMC4xNCwwLjA0LDAuMjEsMC4wNnMwLjE0LDAuMDUsMC4xOSwwLjA5ICAgICAgYzAuMDYsMC4wNCwwLjEsMC4wOSwwLjEzLDAuMTVjMC4wNCwwLjA2LDAuMDYsMC4xMywwLjA2LDAuMjNjMCwwLjA5LTAuMDIsMC4xNy0wLjA1LDAuMjNjLTAuMDMsMC4wNy0wLjA4LDAuMTMtMC4xNCwwLjE3ICAgICAgYy0wLjA1LDAuMDUtMC4xMiwwLjA4LTAuMiwwLjFjLTAuMDksMC4wMi0wLjE4LDAuMDMtMC4yNywwLjAzYy0wLjExLDAtMC4xOS0wLjAxLTAuMjctMC4wM2MtMC4wNy0wLjAyLTAuMTQtMC4wNS0wLjItMC4wOSAgICAgIGMtMC4wMi0wLjAyLTAuMDUtMC4wMy0wLjA3LTAuMDNjLTAuMDEsMC0wLjAzLDAuMDEtMC4wNSwwLjAzQzAuMTgsNjIuOTgsMC4xNyw2MywwLjE1LDYzLjA0SDB2LTAuNjNsMC4xNS0wLjAyICAgICAgYzAuMDEsMC4wOCwwLjAzLDAuMTQsMC4wNiwwLjJzMC4wNywwLjExLDAuMTMsMC4xNmMwLjA1LDAuMDQsMC4xMSwwLjA3LDAuMTgsMC4wOWMwLjA4LDAuMDMsMC4xNiwwLjA0LDAuMjUsMC4wNCAgICAgIGMwLjEzLDAsMC4yMy0wLjAzLDAuMy0wLjA4YzAuMDYtMC4wNSwwLjEtMC4xMywwLjEtMC4yNGMwLTAuMDMtMC4wMS0wLjA2LTAuMDMtMC4wOWMtMC4wMi0wLjAyLTAuMDUtMC4wNC0wLjA5LTAuMDYgICAgICBjLTAuMDQtMC4wMS0wLjA4LTAuMDMtMC4xMy0wLjA0Yy0wLjA0LTAuMDEtMC4wOS0wLjAyLTAuMTUtMC4wM2MtMC4wNSwwLTAuMTEtMC4wMS0wLjE2LTAuMDJjLTAuMDUtMC4wMS0wLjExLTAuMDItMC4xNi0wLjA0ICAgICAgYy0wLjA2LTAuMDItMC4xMy0wLjA0LTAuMTgtMC4wNmMtMC4wNi0wLjAzLTAuMS0wLjA2LTAuMTQtMC4xYy0wLjA0LTAuMDQtMC4wNy0wLjA5LTAuMDktMC4xNWMtMC4wMi0wLjA1LTAuMDMtMC4xMi0wLjAzLTAuMiAgICAgIGMwLTAuMDYsMC4wMS0wLjEyLDAuMDMtMC4xN2MwLjAyLTAuMDYsMC4wNS0wLjExLDAuMS0wLjE1YzAuMDUtMC4wNSwwLjExLTAuMDgsMC4xOC0wLjExQzAuNCw2MS4zMSwwLjQ5LDYxLjMsMC42LDYxLjMgICAgICBjMC4xLDAsMC4xOSwwLjAxLDAuMjYsMC4wM3MwLjEzLDAuMDQsMC4xOCwwLjA3YzAuMDQsMC4wMiwwLjA3LDAuMDMsMC4wOSwwLjAzczAuMDQtMC4wMSwwLjA2LTAuMDNzMC4wNC0wLjA0LDAuMDYtMC4wN2gwLjEyICAgICAgTDEuMzcsNjEuOTN6Ii8+JiN4YTsJCQk8L2c+JiN4YTsJCTwvZz4mI3hhOwkJPGcgaWQ9Imdyb3VwNzU1NC03NyIgdHJhbnNmb3JtPSJ0cmFuc2xhdGUoMjcuNDg2OCwtMjYuNDU2KSI+JiN4YTsJCQk8dGl0bGUgaWQ9InRpdGxlMzMxNzkiPlNoZWV0Ljc1NTQ8L3RpdGxlPiYjeGE7CQkJPGcgaWQ9InNoYXBlNzU1NS03OCI+JiN4YTsJCQkJPHRpdGxlIGlkPSJ0aXRsZTMzMTgxIj5TaGVldC43NTU1PC90aXRsZT4mI3hhOwkJCQk8cGF0aCBpZD0icGF0aDMzMTgzIiBpbmtzY2FwZTpjb25uZWN0b3ItY3VydmF0dXJlPSIwIiBzdHlsZT0iZmlsbDojNDM1NzcwOyIgZD0iTTAuNDksNjIuMTVsMC4xNSwwLjNsMC4zMywwLjA1bC0wLjI0LDAuMjQgICAgICBsMC4wNiwwLjMzbC0wLjMtMC4xNmwtMC4zLDAuMTZsMC4wNS0wLjMzTDAsNjIuNWwwLjM0LTAuMDVMMC40OSw2Mi4xNXoiLz4mI3hhOwkJCTwvZz4mI3hhOwkJCTxnIGlkPSJzaGFwZTc1NTYtODAiIHRyYW5zZm9ybT0idHJhbnNsYXRlKDE1LjI5OTcpIj4mI3hhOwkJCQk8dGl0bGUgaWQ9InRpdGxlMzMxODYiPlNoZWV0Ljc1NTY8L3RpdGxlPiYjeGE7CQkJCTxwYXRoIGlkPSJwYXRoMzMxODgiIGlua3NjYXBlOmNvbm5lY3Rvci1jdXJ2YXR1cmU9IjAiIHN0eWxlPSJmaWxsOiM0MzU3NzA7IiBkPSJNMC40OSw2Mi4xNWwwLjE1LDAuM2wwLjMzLDAuMDVsLTAuMjQsMC4yNCAgICAgIGwwLjA2LDAuMzNsLTAuMy0wLjE2bC0wLjMsMC4xNmwwLjA1LTAuMzNMMCw2Mi41bDAuMzQtMC4wNUwwLjQ5LDYyLjE1eiIvPiYjeGE7CQkJPC9nPiYjeGE7CQk8L2c+JiN4YTsJCTxnIGlkPSJzaGFwZTc1NTctODIiIHRyYW5zZm9ybT0idHJhbnNsYXRlKDguMTg2MzUsLTQyLjc4NykiPiYjeGE7CQkJPHRpdGxlIGlkPSJ0aXRsZTMzMTkyIj5TaGVldC43NTU3PC90aXRsZT4mI3hhOwkJCTxwYXRoIGlkPSJwYXRoMzMxOTQiIGlua3NjYXBlOmNvbm5lY3Rvci1jdXJ2YXR1cmU9IjAiIHN0eWxlPSJmaWxsOiM0MzU3NzA7IiBkPSJNNTAuNSw2MC42OXYtMi4zOGgtOS4zMWwtMy4yMy01LjQySDE2LjkxICAgICBsLTMuMjMsNS40Mkg0LjM3djIuMzhIMHYyLjM4aDU0Ljg3di0yLjM4SDUwLjV6Ii8+JiN4YTsJCTwvZz4mI3hhOwk8L2c+JiN4YTs8L2c+JiN4YTs8L3N2Zz4=;" parent="1" vertex="1">
          <mxGeometry x="235" y="395" width="71" height="60" as="geometry"/>
        </mxCell>
        <mxCell id="uhcvnhkE3gYi9Mrpb9Jq-17" value="" style="shape=image;verticalLabelPosition=bottom;labelBackgroundColor=#ffffff;verticalAlign=top;aspect=fixed;imageAspect=0;image=data:image/svg+xml,PHN2ZyB4bWxuczpkYz0iaHR0cDovL3B1cmwub3JnL2RjL2VsZW1lbnRzLzEuMS8iIHhtbG5zOmNjPSJodHRwOi8vY3JlYXRpdmVjb21tb25zLm9yZy9ucyMiIHhtbG5zOnJkZj0iaHR0cDovL3d3dy53My5vcmcvMTk5OS8wMi8yMi1yZGYtc3ludGF4LW5zIyIgeG1sbnM6c3ZnPSJodHRwOi8vd3d3LnczLm9yZy8yMDAwL3N2ZyIgeG1sbnM9Imh0dHA6Ly93d3cudzMub3JnLzIwMDAvc3ZnIiB4bWxuczpzb2RpcG9kaT0iaHR0cDovL3NvZGlwb2RpLnNvdXJjZWZvcmdlLm5ldC9EVEQvc29kaXBvZGktMC5kdGQiIHhtbG5zOmlua3NjYXBlPSJodHRwOi8vd3d3Lmlua3NjYXBlLm9yZy9uYW1lc3BhY2VzL2lua3NjYXBlIiB2ZXJzaW9uPSIxLjEiIGlkPSJzdmc4NjA4MSIgaW5rc2NhcGU6dmVyc2lvbj0iMC45Mi4zICgyNDA1NTQ2LCAyMDE4LTAzLTExKSIgc29kaXBvZGk6ZG9jbmFtZT0ibW9iaWxlX2VuZ2FnZW1lbnQuc3ZnIiB4PSIwcHgiIHk9IjBweCIgdmlld0JveD0iMCAwIDQ0LjMzIDY0LjQzMDAwMSIgeG1sOnNwYWNlPSJwcmVzZXJ2ZSIgd2lkdGg9IjQ0LjMzMDAwMiIgaGVpZ2h0PSI2NC40MyI+PG1ldGFkYXRhIGlkPSJtZXRhZGF0YTQ5MDciPjxyZGY6UkRGPjxjYzpXb3JrIHJkZjphYm91dD0iIj48ZGM6Zm9ybWF0PmltYWdlL3N2Zyt4bWw8L2RjOmZvcm1hdD48ZGM6dHlwZSByZGY6cmVzb3VyY2U9Imh0dHA6Ly9wdXJsLm9yZy9kYy9kY21pdHlwZS9TdGlsbEltYWdlIi8+PGRjOnRpdGxlLz48L2NjOldvcms+PC9yZGY6UkRGPjwvbWV0YWRhdGE+PGRlZnMgaWQ9ImRlZnM0OTA1Ii8+JiN4YTs8ZmlsdGVyIGlkPSJmaWx0ZXJfMiI+JiN4YTsJPGZlR2F1c3NpYW5CbHVyIGlkPSJmZUdhdXNzaWFuQmx1cjg1OTgyIiBzdGREZXZpYXRpb249IjIiLz4mI3hhOzwvZmlsdGVyPiYjeGE7PHNvZGlwb2RpOm5hbWVkdmlldyBib3JkZXJjb2xvcj0iIzY2NjY2NiIgYm9yZGVyb3BhY2l0eT0iMSIgZml0LW1hcmdpbi1ib3R0b209IjAiIGZpdC1tYXJnaW4tbGVmdD0iMCIgZml0LW1hcmdpbi1yaWdodD0iMCIgZml0LW1hcmdpbi10b3A9IjAiIGdyaWR0b2xlcmFuY2U9IjEwIiBndWlkZXRvbGVyYW5jZT0iMTAiIGlkPSJuYW1lZHZpZXc4NjA4MyIgaW5rc2NhcGU6Y3VycmVudC1sYXllcj0ic3ZnODYwODEiIGlua3NjYXBlOmN4PSItMzguODI2NDMyIiBpbmtzY2FwZTpjeT0iMjMuNTg4Mzg4IiBpbmtzY2FwZTpwYWdlb3BhY2l0eT0iMCIgaW5rc2NhcGU6cGFnZXNoYWRvdz0iMiIgaW5rc2NhcGU6d2luZG93LWhlaWdodD0iMTAxNyIgaW5rc2NhcGU6d2luZG93LW1heGltaXplZD0iMSIgaW5rc2NhcGU6d2luZG93LXdpZHRoPSIxOTIwIiBpbmtzY2FwZTp3aW5kb3cteD0iLTgiIGlua3NjYXBlOndpbmRvdy15PSItOCIgaW5rc2NhcGU6em9vbT0iNy4zMTM2NDEiIG9iamVjdHRvbGVyYW5jZT0iMTAiIHBhZ2Vjb2xvcj0iI2ZmZmZmZiIgc2hvd2dyaWQ9ImZhbHNlIj4mI3hhOwk8L3NvZGlwb2RpOm5hbWVkdmlldz4mI3hhOyYjeGE7PHBhdGggaWQ9InBhdGg4NTk5NSIgaW5rc2NhcGU6Y29ubmVjdG9yLWN1cnZhdHVyZT0iMCIgc3R5bGU9ImZpbGw6IzNlM2UzZSIgZD0ibSA0NC4zMyw2MC41NiBjIDAsMi4xOSAtMS42OCwzLjg3IC0zLjg3LDMuODcgSCAzLjg3IEMgMS42OCw2NC40MyAwLDYyLjc1IDAsNjAuNTYgViAzLjg3IEMgMCwxLjY4IDEuNjgsMCAzLjg3LDAgaCAzNi41OSBjIDIuMTksMCAzLjg3LDEuNjggMy44NywzLjg3IHoiLz4mI3hhOyYjeGE7PHJlY3QgaWQ9InJlY3Q4NjAwMyIgeD0iMi44MzAwMDE4IiB5PSI2LjQ0MDAwMDEiIHN0eWxlPSJmaWxsOiM1OWI0ZDkiIHdpZHRoPSIzOC42NiIgaGVpZ2h0PSI0NS4zNjAwMDEiLz4mI3hhOyYjeGE7PHBhdGggaWQ9InBhdGg4NjAxMSIgaW5rc2NhcGU6Y29ubmVjdG9yLWN1cnZhdHVyZT0iMCIgc3R5bGU9ImZpbGw6I2ZmZmZmZiIgZD0ibSAyNS45LDU4LjExIGMgMCwyLjA2IC0xLjY3LDMuNzQgLTMuNzMsMy43NCAtMi4wNiwwIC0zLjc0LC0xLjY4IC0zLjc0LC0zLjc0IDAsLTIuMDYgMS42OCwtMy43MyAzLjc0LC0zLjczIDIuMDYsMCAzLjczLDEuNjcgMy43MywzLjczIHoiLz4mI3hhOyYjeGE7PHBhdGggaWQ9InBhdGg4NjAxOSIgaW5rc2NhcGU6Y29ubmVjdG9yLWN1cnZhdHVyZT0iMCIgc3R5bGU9ImZpbGw6I2I4ZDQzMiIgZD0ibSAyNC42Miw1OC4xMSBjIDAsMS4yOSAtMS4wMywyLjQ1IC0yLjQ1LDIuNDUgLTEuMjksMCAtMi40NSwtMS4wMyAtMi40NSwtMi40NSAwLC0xLjQyIDEuMDMsLTIuNDUgMi40NSwtMi40NSAxLjQyLDAgMi40NSwxLjE2IDIuNDUsMi40NSB6Ii8+JiN4YTsmI3hhOzxwYXRoIGlkPSJwYXRoODYwMjciIGlua3NjYXBlOmNvbm5lY3Rvci1jdXJ2YXR1cmU9IjAiIHN0eWxlPSJmaWxsOiNmZmZmZmY7ZmlsbC1vcGFjaXR5OjAuMTUiIGQ9Ik0gMi44Myw1MS44IFYgNi40NCBIIDMyLjIxIEwgMzQuNzksMCBIIDMuODcgQyAxLjY4LDAgMCwxLjY4IDAsMy44NyB2IDU2LjY5IGMgMCwyLjE5IDEuNjgsMy44NyAzLjg3LDMuODcgSCA4LjYzIEwgMTMuNzksNTEuOCBaIi8+JiN4YTsmI3hhOyYjeGE7JiN4YTs8cGF0aCBpZD0icGF0aDg2MDQzIiBpbmtzY2FwZTpjb25uZWN0b3ItY3VydmF0dXJlPSIwIiBzdHlsZT0iZmlsbDojZmZmZmZmIiBkPSJtIDI4LjczLDMuNjEgYyAwLDAuNTEgLTAuMzgsMC45IC0wLjksMC45IEggMTYuNjIgYyAtMC41MSwwIC0wLjksLTAuMzkgLTAuOSwtMC45IDAsLTAuNTIgMC4zOSwtMC45IDAuOSwtMC45IGggMTEuMjEgYyAwLjUyLDAgMC45LDAuMzggMC45LDAuOSB6Ii8+JiN4YTsmI3hhOzxyZWN0IGlkPSJyZWN0ODYwNTEiIHg9IjYuODMwMDAxOCIgeT0iNDEuNjE5OTk5IiBzdHlsZT0iZmlsbDojZmZmZmZmO2ZpbGwtb3BhY2l0eTowLjc1IiB3aWR0aD0iNy43MyIgaGVpZ2h0PSI3LjczIi8+JiN4YTsmI3hhOzxyZWN0IGlkPSJyZWN0ODYwNTkiIHg9IjE4LjA0MDAwMSIgeT0iMzUuODIiIHN0eWxlPSJmaWxsOiNmZmZmZmY7ZmlsbC1vcGFjaXR5OjAuNzUiIHdpZHRoPSI3LjczIiBoZWlnaHQ9IjEzLjUzIi8+JiN4YTsmI3hhOzxyZWN0IGlkPSJyZWN0ODYwNjciIHg9IjI5LjI1IiB5PSIzMC4wMiIgc3R5bGU9ImZpbGw6I2ZmZmZmZjtmaWxsLW9wYWNpdHk6MC43NSIgd2lkdGg9IjcuNzMiIGhlaWdodD0iMTkuMzMiLz4mI3hhOyYjeGE7PHBhdGggaWQ9InBhdGg4NjA3NSIgaW5rc2NhcGU6Y29ubmVjdG9yLWN1cnZhdHVyZT0iMCIgc3R5bGU9ImZpbGw6I2ZmZmZmZjtmaWxsLW9wYWNpdHk6MC43NSIgZD0iTSAzMy4zNyw5LjAyIEggMTAuNDQgYyAtMi4wNiwwIC0zLjYxLDEuNjggLTMuNjEsMy42MSB2IDExLjA4IGMgMCwyLjA2IDEuNjgsMy42MSAzLjYxLDMuNjEgaCA0LjUxIHYgNC43NyBsIDQuNzcsLTQuNzcgaCAxMy42NSBjIDIuMDcsMCAzLjYxLC0xLjY3IDMuNjEsLTMuNjEgViAxMi42MyBjIDAsLTEuOTMgLTEuNTQsLTMuNjEgLTMuNjEsLTMuNjEgeiIvPiYjeGE7PC9zdmc+;" parent="1" vertex="1">
          <mxGeometry x="505" y="39.99999999999818" width="44" height="64" as="geometry"/>
        </mxCell>
        <mxCell id="uhcvnhkE3gYi9Mrpb9Jq-18" value="" style="shape=image;verticalLabelPosition=bottom;labelBackgroundColor=#ffffff;verticalAlign=top;aspect=fixed;imageAspect=0;image=data:image/svg+xml,PHN2ZyB4bWxuczpjYz0iaHR0cDovL2NyZWF0aXZlY29tbW9ucy5vcmcvbnMjIiB4bWxuczpkYz0iaHR0cDovL3B1cmwub3JnL2RjL2VsZW1lbnRzLzEuMS8iIHhtbG5zOmlua3NjYXBlPSJodHRwOi8vd3d3Lmlua3NjYXBlLm9yZy9uYW1lc3BhY2VzL2lua3NjYXBlIiB4bWxuczpyZGY9Imh0dHA6Ly93d3cudzMub3JnLzE5OTkvMDIvMjItcmRmLXN5bnRheC1ucyMiIHhtbG5zOnNvZGlwb2RpPSJodHRwOi8vc29kaXBvZGkuc291cmNlZm9yZ2UubmV0L0RURC9zb2RpcG9kaS0wLmR0ZCIgeG1sbnM6c3ZnPSJodHRwOi8vd3d3LnczLm9yZy8yMDAwL3N2ZyIgeG1sbnM9Imh0dHA6Ly93d3cudzMub3JnLzIwMDAvc3ZnIiB4bWxuczp4bGluaz0iaHR0cDovL3d3dy53My5vcmcvMTk5OS94bGluayIgdmVyc2lvbj0iMS4xIiBpZD0ic3ZnMTEzMjQyIiBpbmtzY2FwZTp2ZXJzaW9uPSIwLjkyLjMgKDI0MDU1NDYsIDIwMTgtMDMtMTEpIiBzb2RpcG9kaTpkb2NuYW1lPSJ2aXNpb25fMS5zdmciIHg9IjBweCIgeT0iMHB4IiB2aWV3Qm94PSIwIDAgMjcuMzUgMTguNzUiIHN0eWxlPSJlbmFibGUtYmFja2dyb3VuZDpuZXcgMCAwIDI3LjM1IDE4Ljc1OyIgeG1sOnNwYWNlPSJwcmVzZXJ2ZSI+JiN4YTs8c29kaXBvZGk6bmFtZWR2aWV3IGJvcmRlcmNvbG9yPSIjNjY2NjY2IiBib3JkZXJvcGFjaXR5PSIxIiBmaXQtbWFyZ2luLWJvdHRvbT0iMCIgZml0LW1hcmdpbi1sZWZ0PSIwIiBmaXQtbWFyZ2luLXJpZ2h0PSIwIiBmaXQtbWFyZ2luLXRvcD0iMCIgZ3JpZHRvbGVyYW5jZT0iMTAiIGd1aWRldG9sZXJhbmNlPSIxMCIgaWQ9Im5hbWVkdmlldzExMzI0NCIgaW5rc2NhcGU6Y3VycmVudC1sYXllcj0ic3ZnMTEzMjQyIiBpbmtzY2FwZTpjeD0iMTguMjM0OTkyIiBpbmtzY2FwZTpjeT0iMTIuNDk5OTk1IiBpbmtzY2FwZTpwYWdlb3BhY2l0eT0iMCIgaW5rc2NhcGU6cGFnZXNoYWRvdz0iMiIgaW5rc2NhcGU6d2luZG93LWhlaWdodD0iMTAxNyIgaW5rc2NhcGU6d2luZG93LW1heGltaXplZD0iMSIgaW5rc2NhcGU6d2luZG93LXdpZHRoPSIxOTIwIiBpbmtzY2FwZTp3aW5kb3cteD0iLTgiIGlua3NjYXBlOndpbmRvdy15PSItOCIgaW5rc2NhcGU6em9vbT0iMzIuMTExMTExIiBvYmplY3R0b2xlcmFuY2U9IjEwIiBwYWdlY29sb3I9IiNmZmZmZmYiIHNob3dncmlkPSJmYWxzZSI+JiN4YTsJPC9zb2RpcG9kaTpuYW1lZHZpZXc+JiN4YTs8ZyBpZD0iZzExMzI0MCIgdHJhbnNmb3JtPSJ0cmFuc2xhdGUoLTAuNzUsLTAuNzUpIj4mI3hhOwk8dGl0bGUgaWQ9InRpdGxlMTEzMjE1Ij5QYWdlLTE8L3RpdGxlPiYjeGE7CTxnIGlkPSJncm91cDU5NTktMSIgdHJhbnNmb3JtPSJ0cmFuc2xhdGUoMC43NSwtMC43NSkiPiYjeGE7CQk8dGl0bGUgaWQ9InRpdGxlMTEzMjE3Ij5WaXNpb24gIzE8L3RpdGxlPiYjeGE7CQk8ZyBpZD0ic2hhcGU1OTYwLTIiPiYjeGE7CQkJPHRpdGxlIGlkPSJ0aXRsZTExMzIxOSI+cGF0aDgwOTM8L3RpdGxlPiYjeGE7CQkJPHBhdGggaWQ9InBhdGgxMTMyMjEiIGlua3NjYXBlOmNvbm5lY3Rvci1jdXJ2YXR1cmU9IjAiIHN0eWxlPSJmaWxsOiM1NTZBOEE7IiBkPSJNMjcuMzUsMTAuNWMwLDIuODItNi4xMyw5Ljc1LTEzLjY4LDkuNzUgICAgIFMwLDEzLjMzLDAsMTAuNWMwLTMuMDksNi4xMy05LDEzLjY4LTlTMjcuMzUsNy42OSwyNy4zNSwxMC41eiIvPiYjeGE7CQk8L2c+JiN4YTsJCTxnIGlkPSJzaGFwZTU5NjEtNCIgdHJhbnNmb3JtPSJ0cmFuc2xhdGUoNy4yLC0yLjg4KSI+JiN4YTsJCQk8dGl0bGUgaWQ9InRpdGxlMTEzMjI0Ij5jaXJjbGU4MDk1PC90aXRsZT4mI3hhOwkJCTxjaXJjbGUgaWQ9ImVsbGlwc2UxMTMyMjYiIHN0eWxlPSJmaWxsOiNGRkZGRkY7IiBjeD0iNi40OCIgY3k9IjEzLjc3IiByPSI2LjQ4Ii8+JiN4YTsJCTwvZz4mI3hhOwkJPGcgaWQ9InNoYXBlNTk2Mi02IiB0cmFuc2Zvcm09InRyYW5zbGF0ZSg5LjM2LC01LjA0KSI+JiN4YTsJCQk8dGl0bGUgaWQ9InRpdGxlMTEzMjI5Ij5jaXJjbGU4MDk3PC90aXRsZT4mI3hhOwkJCTxjaXJjbGUgaWQ9ImVsbGlwc2UxMTMyMzEiIHN0eWxlPSJmaWxsOiMyQkM3RjQ7IiBjeD0iNC4zMiIgY3k9IjE1LjkzIiByPSI0LjMyIi8+JiN4YTsJCTwvZz4mI3hhOwkJPGcgaWQ9InNoYXBlNTk2My04IiB0cmFuc2Zvcm09InRyYW5zbGF0ZSgxMi45NiwtOS4zNikiPiYjeGE7CQkJPHRpdGxlIGlkPSJ0aXRsZTExMzIzNCI+Y2lyY2xlODA5OTwvdGl0bGU+JiN4YTsJCQk8Y2lyY2xlIGlkPSJlbGxpcHNlMTEzMjM2IiBzdHlsZT0iZmlsbDojRkZGRkZGOyIgY3g9IjIuMTYiIGN5PSIxOC4wOSIgcj0iMi4xNiIvPiYjeGE7CQk8L2c+JiN4YTsJPC9nPiYjeGE7PC9nPiYjeGE7PC9zdmc+;" parent="1" vertex="1">
          <mxGeometry x="415" y="379.93" width="20" height="14.07" as="geometry"/>
        </mxCell>
        <mxCell id="uhcvnhkE3gYi9Mrpb9Jq-22" value="" style="shape=image;verticalLabelPosition=bottom;labelBackgroundColor=#ffffff;verticalAlign=top;aspect=fixed;imageAspect=0;image=data:image/svg+xml,PHN2ZyB4bWxuczpjYz0iaHR0cDovL2NyZWF0aXZlY29tbW9ucy5vcmcvbnMjIiB4bWxuczpkYz0iaHR0cDovL3B1cmwub3JnL2RjL2VsZW1lbnRzLzEuMS8iIHhtbG5zOmlua3NjYXBlPSJodHRwOi8vd3d3Lmlua3NjYXBlLm9yZy9uYW1lc3BhY2VzL2lua3NjYXBlIiB4bWxuczpyZGY9Imh0dHA6Ly93d3cudzMub3JnLzE5OTkvMDIvMjItcmRmLXN5bnRheC1ucyMiIHhtbG5zOnNvZGlwb2RpPSJodHRwOi8vc29kaXBvZGkuc291cmNlZm9yZ2UubmV0L0RURC9zb2RpcG9kaS0wLmR0ZCIgeG1sbnM6c3ZnPSJodHRwOi8vd3d3LnczLm9yZy8yMDAwL3N2ZyIgeG1sbnM9Imh0dHA6Ly93d3cudzMub3JnLzIwMDAvc3ZnIiB4bWxuczp4bGluaz0iaHR0cDovL3d3dy53My5vcmcvMTk5OS94bGluayIgdmVyc2lvbj0iMS4xIiBpZD0ic3ZnMTEzMjQyIiBpbmtzY2FwZTp2ZXJzaW9uPSIwLjkyLjMgKDI0MDU1NDYsIDIwMTgtMDMtMTEpIiBzb2RpcG9kaTpkb2NuYW1lPSJ2aXNpb25fMS5zdmciIHg9IjBweCIgeT0iMHB4IiB2aWV3Qm94PSIwIDAgMjcuMzUgMTguNzUiIHN0eWxlPSJlbmFibGUtYmFja2dyb3VuZDpuZXcgMCAwIDI3LjM1IDE4Ljc1OyIgeG1sOnNwYWNlPSJwcmVzZXJ2ZSI+JiN4YTs8c29kaXBvZGk6bmFtZWR2aWV3IGJvcmRlcmNvbG9yPSIjNjY2NjY2IiBib3JkZXJvcGFjaXR5PSIxIiBmaXQtbWFyZ2luLWJvdHRvbT0iMCIgZml0LW1hcmdpbi1sZWZ0PSIwIiBmaXQtbWFyZ2luLXJpZ2h0PSIwIiBmaXQtbWFyZ2luLXRvcD0iMCIgZ3JpZHRvbGVyYW5jZT0iMTAiIGd1aWRldG9sZXJhbmNlPSIxMCIgaWQ9Im5hbWVkdmlldzExMzI0NCIgaW5rc2NhcGU6Y3VycmVudC1sYXllcj0ic3ZnMTEzMjQyIiBpbmtzY2FwZTpjeD0iMTguMjM0OTkyIiBpbmtzY2FwZTpjeT0iMTIuNDk5OTk1IiBpbmtzY2FwZTpwYWdlb3BhY2l0eT0iMCIgaW5rc2NhcGU6cGFnZXNoYWRvdz0iMiIgaW5rc2NhcGU6d2luZG93LWhlaWdodD0iMTAxNyIgaW5rc2NhcGU6d2luZG93LW1heGltaXplZD0iMSIgaW5rc2NhcGU6d2luZG93LXdpZHRoPSIxOTIwIiBpbmtzY2FwZTp3aW5kb3cteD0iLTgiIGlua3NjYXBlOndpbmRvdy15PSItOCIgaW5rc2NhcGU6em9vbT0iMzIuMTExMTExIiBvYmplY3R0b2xlcmFuY2U9IjEwIiBwYWdlY29sb3I9IiNmZmZmZmYiIHNob3dncmlkPSJmYWxzZSI+JiN4YTsJPC9zb2RpcG9kaTpuYW1lZHZpZXc+JiN4YTs8ZyBpZD0iZzExMzI0MCIgdHJhbnNmb3JtPSJ0cmFuc2xhdGUoLTAuNzUsLTAuNzUpIj4mI3hhOwk8dGl0bGUgaWQ9InRpdGxlMTEzMjE1Ij5QYWdlLTE8L3RpdGxlPiYjeGE7CTxnIGlkPSJncm91cDU5NTktMSIgdHJhbnNmb3JtPSJ0cmFuc2xhdGUoMC43NSwtMC43NSkiPiYjeGE7CQk8dGl0bGUgaWQ9InRpdGxlMTEzMjE3Ij5WaXNpb24gIzE8L3RpdGxlPiYjeGE7CQk8ZyBpZD0ic2hhcGU1OTYwLTIiPiYjeGE7CQkJPHRpdGxlIGlkPSJ0aXRsZTExMzIxOSI+cGF0aDgwOTM8L3RpdGxlPiYjeGE7CQkJPHBhdGggaWQ9InBhdGgxMTMyMjEiIGlua3NjYXBlOmNvbm5lY3Rvci1jdXJ2YXR1cmU9IjAiIHN0eWxlPSJmaWxsOiM1NTZBOEE7IiBkPSJNMjcuMzUsMTAuNWMwLDIuODItNi4xMyw5Ljc1LTEzLjY4LDkuNzUgICAgIFMwLDEzLjMzLDAsMTAuNWMwLTMuMDksNi4xMy05LDEzLjY4LTlTMjcuMzUsNy42OSwyNy4zNSwxMC41eiIvPiYjeGE7CQk8L2c+JiN4YTsJCTxnIGlkPSJzaGFwZTU5NjEtNCIgdHJhbnNmb3JtPSJ0cmFuc2xhdGUoNy4yLC0yLjg4KSI+JiN4YTsJCQk8dGl0bGUgaWQ9InRpdGxlMTEzMjI0Ij5jaXJjbGU4MDk1PC90aXRsZT4mI3hhOwkJCTxjaXJjbGUgaWQ9ImVsbGlwc2UxMTMyMjYiIHN0eWxlPSJmaWxsOiNGRkZGRkY7IiBjeD0iNi40OCIgY3k9IjEzLjc3IiByPSI2LjQ4Ii8+JiN4YTsJCTwvZz4mI3hhOwkJPGcgaWQ9InNoYXBlNTk2Mi02IiB0cmFuc2Zvcm09InRyYW5zbGF0ZSg5LjM2LC01LjA0KSI+JiN4YTsJCQk8dGl0bGUgaWQ9InRpdGxlMTEzMjI5Ij5jaXJjbGU4MDk3PC90aXRsZT4mI3hhOwkJCTxjaXJjbGUgaWQ9ImVsbGlwc2UxMTMyMzEiIHN0eWxlPSJmaWxsOiMyQkM3RjQ7IiBjeD0iNC4zMiIgY3k9IjE1LjkzIiByPSI0LjMyIi8+JiN4YTsJCTwvZz4mI3hhOwkJPGcgaWQ9InNoYXBlNTk2My04IiB0cmFuc2Zvcm09InRyYW5zbGF0ZSgxMi45NiwtOS4zNikiPiYjeGE7CQkJPHRpdGxlIGlkPSJ0aXRsZTExMzIzNCI+Y2lyY2xlODA5OTwvdGl0bGU+JiN4YTsJCQk8Y2lyY2xlIGlkPSJlbGxpcHNlMTEzMjM2IiBzdHlsZT0iZmlsbDojRkZGRkZGOyIgY3g9IjIuMTYiIGN5PSIxOC4wOSIgcj0iMi4xNiIvPiYjeGE7CQk8L2c+JiN4YTsJPC9nPiYjeGE7PC9nPiYjeGE7PC9zdmc+;" parent="1" vertex="1">
          <mxGeometry x="505" y="310" width="20" height="14.07" as="geometry"/>
        </mxCell>
        <mxCell id="uhcvnhkE3gYi9Mrpb9Jq-23" value="" style="shape=image;verticalLabelPosition=bottom;labelBackgroundColor=#ffffff;verticalAlign=top;aspect=fixed;imageAspect=0;image=data:image/svg+xml,PHN2ZyB4bWxuczpjYz0iaHR0cDovL2NyZWF0aXZlY29tbW9ucy5vcmcvbnMjIiB4bWxuczpkYz0iaHR0cDovL3B1cmwub3JnL2RjL2VsZW1lbnRzLzEuMS8iIHhtbG5zOmlua3NjYXBlPSJodHRwOi8vd3d3Lmlua3NjYXBlLm9yZy9uYW1lc3BhY2VzL2lua3NjYXBlIiB4bWxuczpyZGY9Imh0dHA6Ly93d3cudzMub3JnLzE5OTkvMDIvMjItcmRmLXN5bnRheC1ucyMiIHhtbG5zOnNvZGlwb2RpPSJodHRwOi8vc29kaXBvZGkuc291cmNlZm9yZ2UubmV0L0RURC9zb2RpcG9kaS0wLmR0ZCIgeG1sbnM6c3ZnPSJodHRwOi8vd3d3LnczLm9yZy8yMDAwL3N2ZyIgeG1sbnM9Imh0dHA6Ly93d3cudzMub3JnLzIwMDAvc3ZnIiB4bWxuczp4bGluaz0iaHR0cDovL3d3dy53My5vcmcvMTk5OS94bGluayIgdmVyc2lvbj0iMS4xIiBpZD0ic3ZnMTEzMjQyIiBpbmtzY2FwZTp2ZXJzaW9uPSIwLjkyLjMgKDI0MDU1NDYsIDIwMTgtMDMtMTEpIiBzb2RpcG9kaTpkb2NuYW1lPSJ2aXNpb25fMS5zdmciIHg9IjBweCIgeT0iMHB4IiB2aWV3Qm94PSIwIDAgMjcuMzUgMTguNzUiIHN0eWxlPSJlbmFibGUtYmFja2dyb3VuZDpuZXcgMCAwIDI3LjM1IDE4Ljc1OyIgeG1sOnNwYWNlPSJwcmVzZXJ2ZSI+JiN4YTs8c29kaXBvZGk6bmFtZWR2aWV3IGJvcmRlcmNvbG9yPSIjNjY2NjY2IiBib3JkZXJvcGFjaXR5PSIxIiBmaXQtbWFyZ2luLWJvdHRvbT0iMCIgZml0LW1hcmdpbi1sZWZ0PSIwIiBmaXQtbWFyZ2luLXJpZ2h0PSIwIiBmaXQtbWFyZ2luLXRvcD0iMCIgZ3JpZHRvbGVyYW5jZT0iMTAiIGd1aWRldG9sZXJhbmNlPSIxMCIgaWQ9Im5hbWVkdmlldzExMzI0NCIgaW5rc2NhcGU6Y3VycmVudC1sYXllcj0ic3ZnMTEzMjQyIiBpbmtzY2FwZTpjeD0iMTguMjM0OTkyIiBpbmtzY2FwZTpjeT0iMTIuNDk5OTk1IiBpbmtzY2FwZTpwYWdlb3BhY2l0eT0iMCIgaW5rc2NhcGU6cGFnZXNoYWRvdz0iMiIgaW5rc2NhcGU6d2luZG93LWhlaWdodD0iMTAxNyIgaW5rc2NhcGU6d2luZG93LW1heGltaXplZD0iMSIgaW5rc2NhcGU6d2luZG93LXdpZHRoPSIxOTIwIiBpbmtzY2FwZTp3aW5kb3cteD0iLTgiIGlua3NjYXBlOndpbmRvdy15PSItOCIgaW5rc2NhcGU6em9vbT0iMzIuMTExMTExIiBvYmplY3R0b2xlcmFuY2U9IjEwIiBwYWdlY29sb3I9IiNmZmZmZmYiIHNob3dncmlkPSJmYWxzZSI+JiN4YTsJPC9zb2RpcG9kaTpuYW1lZHZpZXc+JiN4YTs8ZyBpZD0iZzExMzI0MCIgdHJhbnNmb3JtPSJ0cmFuc2xhdGUoLTAuNzUsLTAuNzUpIj4mI3hhOwk8dGl0bGUgaWQ9InRpdGxlMTEzMjE1Ij5QYWdlLTE8L3RpdGxlPiYjeGE7CTxnIGlkPSJncm91cDU5NTktMSIgdHJhbnNmb3JtPSJ0cmFuc2xhdGUoMC43NSwtMC43NSkiPiYjeGE7CQk8dGl0bGUgaWQ9InRpdGxlMTEzMjE3Ij5WaXNpb24gIzE8L3RpdGxlPiYjeGE7CQk8ZyBpZD0ic2hhcGU1OTYwLTIiPiYjeGE7CQkJPHRpdGxlIGlkPSJ0aXRsZTExMzIxOSI+cGF0aDgwOTM8L3RpdGxlPiYjeGE7CQkJPHBhdGggaWQ9InBhdGgxMTMyMjEiIGlua3NjYXBlOmNvbm5lY3Rvci1jdXJ2YXR1cmU9IjAiIHN0eWxlPSJmaWxsOiM1NTZBOEE7IiBkPSJNMjcuMzUsMTAuNWMwLDIuODItNi4xMyw5Ljc1LTEzLjY4LDkuNzUgICAgIFMwLDEzLjMzLDAsMTAuNWMwLTMuMDksNi4xMy05LDEzLjY4LTlTMjcuMzUsNy42OSwyNy4zNSwxMC41eiIvPiYjeGE7CQk8L2c+JiN4YTsJCTxnIGlkPSJzaGFwZTU5NjEtNCIgdHJhbnNmb3JtPSJ0cmFuc2xhdGUoNy4yLC0yLjg4KSI+JiN4YTsJCQk8dGl0bGUgaWQ9InRpdGxlMTEzMjI0Ij5jaXJjbGU4MDk1PC90aXRsZT4mI3hhOwkJCTxjaXJjbGUgaWQ9ImVsbGlwc2UxMTMyMjYiIHN0eWxlPSJmaWxsOiNGRkZGRkY7IiBjeD0iNi40OCIgY3k9IjEzLjc3IiByPSI2LjQ4Ii8+JiN4YTsJCTwvZz4mI3hhOwkJPGcgaWQ9InNoYXBlNTk2Mi02IiB0cmFuc2Zvcm09InRyYW5zbGF0ZSg5LjM2LC01LjA0KSI+JiN4YTsJCQk8dGl0bGUgaWQ9InRpdGxlMTEzMjI5Ij5jaXJjbGU4MDk3PC90aXRsZT4mI3hhOwkJCTxjaXJjbGUgaWQ9ImVsbGlwc2UxMTMyMzEiIHN0eWxlPSJmaWxsOiMyQkM3RjQ7IiBjeD0iNC4zMiIgY3k9IjE1LjkzIiByPSI0LjMyIi8+JiN4YTsJCTwvZz4mI3hhOwkJPGcgaWQ9InNoYXBlNTk2My04IiB0cmFuc2Zvcm09InRyYW5zbGF0ZSgxMi45NiwtOS4zNikiPiYjeGE7CQkJPHRpdGxlIGlkPSJ0aXRsZTExMzIzNCI+Y2lyY2xlODA5OTwvdGl0bGU+JiN4YTsJCQk8Y2lyY2xlIGlkPSJlbGxpcHNlMTEzMjM2IiBzdHlsZT0iZmlsbDojRkZGRkZGOyIgY3g9IjIuMTYiIGN5PSIxOC4wOSIgcj0iMi4xNiIvPiYjeGE7CQk8L2c+JiN4YTsJPC9nPiYjeGE7PC9nPiYjeGE7PC9zdmc+;" parent="1" vertex="1">
          <mxGeometry x="618.52" y="379.93" width="20" height="14.07" as="geometry"/>
        </mxCell>
        <mxCell id="dEYy_HMSiE3OLaAgkdB_-3" value="" style="shape=flexArrow;endArrow=classic;startArrow=classic;html=1;entryX=0;entryY=0.5;entryDx=0;entryDy=0;" edge="1" parent="1" source="45236fa5f4b8e91a-4" target="uhcvnhkE3gYi9Mrpb9Jq-1">
          <mxGeometry width="50" height="50" relative="1" as="geometry">
            <mxPoint x="350" y="410" as="sourcePoint"/>
            <mxPoint x="400" y="360" as="targetPoint"/>
          </mxGeometry>
        </mxCell>
        <mxCell id="dEYy_HMSiE3OLaAgkdB_-7" value="" style="shape=flexArrow;endArrow=classic;startArrow=classic;html=1;" edge="1" parent="1">
          <mxGeometry width="50" height="50" relative="1" as="geometry">
            <mxPoint x="400" y="490" as="sourcePoint"/>
            <mxPoint x="450" y="440" as="targetPoint"/>
          </mxGeometry>
        </mxCell>
        <mxCell id="dEYy_HMSiE3OLaAgkdB_-9" value="" style="shape=flexArrow;endArrow=classic;startArrow=classic;html=1;exitX=0.5;exitY=0;exitDx=0;exitDy=0;" edge="1" parent="1" source="45236fa5f4b8e91a-2">
          <mxGeometry width="50" height="50" relative="1" as="geometry">
            <mxPoint x="190" y="790" as="sourcePoint"/>
            <mxPoint x="530" y="460" as="targetPoint"/>
            <Array as="points"/>
          </mxGeometry>
        </mxCell>
        <mxCell id="dEYy_HMSiE3OLaAgkdB_-10" value="" style="shape=flexArrow;endArrow=classic;startArrow=classic;html=1;entryX=0.818;entryY=0.906;entryDx=0;entryDy=0;entryPerimeter=0;" edge="1" parent="1" source="45236fa5f4b8e91a-7" target="374e34682ed331ee-1">
          <mxGeometry width="50" height="50" relative="1" as="geometry">
            <mxPoint x="190" y="790" as="sourcePoint"/>
            <mxPoint x="240" y="740" as="targetPoint"/>
          </mxGeometry>
        </mxCell>
        <mxCell id="dEYy_HMSiE3OLaAgkdB_-13" value="" style="shape=flexArrow;endArrow=classic;startArrow=classic;html=1;" edge="1" parent="1" target="45236fa5f4b8e91a-6">
          <mxGeometry width="50" height="50" relative="1" as="geometry">
            <mxPoint x="620" y="310" as="sourcePoint"/>
            <mxPoint x="650" y="280" as="targetPoint"/>
          </mxGeometry>
        </mxCell>
        <mxCell id="dEYy_HMSiE3OLaAgkdB_-15" value="" style="shape=flexArrow;endArrow=classic;startArrow=classic;html=1;entryX=1;entryY=1;entryDx=0;entryDy=0;exitX=0.174;exitY=0.156;exitDx=0;exitDy=0;exitPerimeter=0;" edge="1" parent="1" source="374e34682ed331ee-1" target="45236fa5f4b8e91a-5">
          <mxGeometry width="50" height="50" relative="1" as="geometry">
            <mxPoint x="190" y="860" as="sourcePoint"/>
            <mxPoint x="240" y="810" as="targetPoint"/>
          </mxGeometry>
        </mxCell>
        <mxCell id="dEYy_HMSiE3OLaAgkdB_-18" value="" style="shape=flexArrow;endArrow=classic;startArrow=classic;html=1;entryX=0;entryY=0.425;entryDx=0;entryDy=0;entryPerimeter=0;" edge="1" parent="1" source="uhcvnhkE3gYi9Mrpb9Jq-3" target="45236fa5f4b8e91a-3">
          <mxGeometry width="50" height="50" relative="1" as="geometry">
            <mxPoint x="190" y="790" as="sourcePoint"/>
            <mxPoint x="240" y="740" as="targetPoint"/>
          </mxGeometry>
        </mxCell>
        <mxCell id="dEYy_HMSiE3OLaAgkdB_-20" value="" style="shape=flexArrow;endArrow=classic;startArrow=classic;html=1;entryX=0.435;entryY=1.013;entryDx=0;entryDy=0;entryPerimeter=0;" edge="1" parent="1" target="45236fa5f4b8e91a-1">
          <mxGeometry width="50" height="50" relative="1" as="geometry">
            <mxPoint x="520" y="269" as="sourcePoint"/>
            <mxPoint x="240" y="740" as="targetPoint"/>
          </mxGeometry>
        </mxCell>
      </root>
    </mxGraphModel>
  </diagram>
</mxfile>
